MFile 1 3 1024
MTrk
0 SMPTE 0 0 0 0 0
0 TimeSig 3/4 24 8
0 KeySig 4 major
0 Tempo 375000
49152 TimeSig 2/4 24 8
49152 Tempo 750004
51200 Tempo 705882
53248 Tempo 631577
55296 Tempo 499999
57344 Tempo 428572
59392 Tempo 428572
61440 Tempo 428572
63488 Tempo 428572
65536 Tempo 428572
67584 Tempo 428572
69632 Tempo 428572
71680 Tempo 428572
73728 Tempo 428572
75776 Tempo 428572
77824 Tempo 428572
79872 Tempo 428572
81920 Tempo 428572
83968 Tempo 428572
86016 Tempo 428572
88577 Meta TrkEnd
TrkEnd
MTrk
0 Meta 0x09  4c 6f 6f 70 42 65 20 49 6e 74 65 72 6e 61 6c 20 4d 49 44 49
0 Meta TrkName "Piano"
0 PrCh ch=2 p=0
0 Par ch=2 c=7 v=105
0 Par ch=2 c=10 v=64
3072 On ch=2 n=48 v=64
4096 Off ch=2 n=48 v=0
4096 On ch=2 n=56 v=64
4096 On ch=2 n=63 v=64
5120 Off ch=2 n=56 v=0
5120 Off ch=2 n=63 v=0
5120 On ch=2 n=56 v=64
5120 On ch=2 n=63 v=64
6144 Off ch=2 n=56 v=0
6144 Off ch=2 n=63 v=0
6144 On ch=2 n=49 v=64
7168 Off ch=2 n=49 v=0
7168 On ch=2 n=56 v=64
7168 On ch=2 n=64 v=64
8192 Off ch=2 n=56 v=0
8192 Off ch=2 n=64 v=0
8192 On ch=2 n=56 v=64
8192 On ch=2 n=64 v=64
9216 Off ch=2 n=56 v=0
9216 Off ch=2 n=64 v=0
9216 On ch=2 n=44 v=64
10240 Off ch=2 n=44 v=0
10240 On ch=2 n=54 v=64
10240 On ch=2 n=60 v=64
11264 Off ch=2 n=54 v=0
11264 Off ch=2 n=60 v=0
11264 On ch=2 n=54 v=64
11264 On ch=2 n=60 v=64
12288 Off ch=2 n=54 v=0
12288 Off ch=2 n=60 v=0
12288 On ch=2 n=45 v=64
13312 Off ch=2 n=45 v=0
13312 On ch=2 n=52 v=64
13312 On ch=2 n=61 v=64
14336 Off ch=2 n=52 v=0
14336 Off ch=2 n=61 v=0
14336 On ch=2 n=52 v=64
14336 On ch=2 n=61 v=64
15360 Off ch=2 n=52 v=0
15360 Off ch=2 n=61 v=0
15360 On ch=2 n=42 v=64
16384 Off ch=2 n=42 v=0
16384 On ch=2 n=54 v=64
16384 On ch=2 n=61 v=64
17408 Off ch=2 n=54 v=0
17408 Off ch=2 n=61 v=0
18432 On ch=2 n=44 v=64
19456 Off ch=2 n=44 v=0
19456 On ch=2 n=52 v=64
19456 On ch=2 n=56 v=64
20480 Off ch=2 n=52 v=0
20480 Off ch=2 n=56 v=0
21504 On ch=2 n=32 v=64
22528 Off ch=2 n=32 v=0
22528 On ch=2 n=52 v=64
22528 On ch=2 n=60 v=64
23552 Off ch=2 n=52 v=0
23552 Off ch=2 n=60 v=0
24576 On ch=2 n=49 v=64
25600 Off ch=2 n=49 v=0
25600 On ch=2 n=56 v=64
25600 On ch=2 n=64 v=64
26624 Off ch=2 n=56 v=0
26624 Off ch=2 n=64 v=0
27648 On ch=2 n=48 v=64
28672 Off ch=2 n=48 v=0
28672 On ch=2 n=56 v=64
28672 On ch=2 n=63 v=64
29696 Off ch=2 n=56 v=0
29696 Off ch=2 n=63 v=0
29696 On ch=2 n=56 v=64
29696 On ch=2 n=63 v=64
30720 Off ch=2 n=56 v=0
30720 Off ch=2 n=63 v=0
30720 On ch=2 n=49 v=64
31744 Off ch=2 n=49 v=0
31744 On ch=2 n=56 v=64
31744 On ch=2 n=64 v=64
32768 Off ch=2 n=56 v=0
32768 Off ch=2 n=64 v=0
32768 On ch=2 n=56 v=64
32768 On ch=2 n=64 v=64
33792 Off ch=2 n=56 v=0
33792 Off ch=2 n=64 v=0
33792 On ch=2 n=44 v=64
34816 Off ch=2 n=44 v=0
34816 On ch=2 n=54 v=64
34816 On ch=2 n=60 v=64
35840 Off ch=2 n=54 v=0
35840 Off ch=2 n=60 v=0
35840 On ch=2 n=54 v=64
35840 On ch=2 n=60 v=64
36864 Off ch=2 n=54 v=0
36864 Off ch=2 n=60 v=0
36864 On ch=2 n=45 v=64
37888 Off ch=2 n=45 v=0
37888 On ch=2 n=52 v=64
37888 On ch=2 n=61 v=64
38912 Off ch=2 n=52 v=0
38912 Off ch=2 n=61 v=0
38912 On ch=2 n=52 v=64
38912 On ch=2 n=61 v=64
39936 Off ch=2 n=52 v=0
39936 Off ch=2 n=61 v=0
39936 On ch=2 n=42 v=64
40960 Off ch=2 n=42 v=0
40960 On ch=2 n=57 v=64
40960 On ch=2 n=62 v=64
40960 On ch=2 n=69 v=64
41370 Off ch=2 n=57 v=0
41370 Off ch=2 n=62 v=0
41370 Off ch=2 n=69 v=0
46080 On ch=2 n=44 v=64
47104 Off ch=2 n=44 v=0
47104 On ch=2 n=56 v=64
47104 On ch=2 n=60 v=64
47104 On ch=2 n=66 v=64
48128 Off ch=2 n=56 v=0
48128 Off ch=2 n=60 v=0
48128 Off ch=2 n=66 v=0
48128 On ch=2 n=56 v=64
48128 On ch=2 n=60 v=64
48128 On ch=2 n=66 v=64
49152 Off ch=2 n=56 v=0
49152 Off ch=2 n=60 v=0
49152 Off ch=2 n=66 v=0
49152 On ch=2 n=49 v=64
49254 Off ch=2 n=49 v=0
49664 On ch=2 n=61 v=64
49664 On ch=2 n=64 v=64
49766 Off ch=2 n=61 v=0
49766 Off ch=2 n=64 v=0
50176 On ch=2 n=44 v=64
50278 Off ch=2 n=44 v=0
50688 On ch=2 n=61 v=64
50688 On ch=2 n=64 v=64
50790 Off ch=2 n=61 v=0
50790 Off ch=2 n=64 v=0
51200 On ch=2 n=49 v=64
51302 Off ch=2 n=49 v=0
51712 On ch=2 n=61 v=64
51712 On ch=2 n=64 v=64
51814 Off ch=2 n=61 v=0
51814 Off ch=2 n=64 v=0
52224 On ch=2 n=44 v=64
52326 Off ch=2 n=44 v=0
52736 On ch=2 n=61 v=64
52736 On ch=2 n=64 v=64
52838 Off ch=2 n=61 v=0
52838 Off ch=2 n=64 v=0
53248 On ch=2 n=49 v=64
53350 Off ch=2 n=49 v=0
53760 On ch=2 n=61 v=64
53760 On ch=2 n=64 v=64
53862 Off ch=2 n=61 v=0
53862 Off ch=2 n=64 v=0
54272 On ch=2 n=44 v=64
54374 Off ch=2 n=44 v=0
54784 On ch=2 n=61 v=64
54784 On ch=2 n=64 v=64
54886 Off ch=2 n=61 v=0
54886 Off ch=2 n=64 v=0
55296 On ch=2 n=49 v=64
55398 Off ch=2 n=49 v=0
55808 On ch=2 n=61 v=64
55808 On ch=2 n=64 v=64
55910 Off ch=2 n=61 v=0
55910 Off ch=2 n=64 v=0
56320 On ch=2 n=44 v=64
56422 Off ch=2 n=44 v=0
56832 On ch=2 n=61 v=64
56832 On ch=2 n=64 v=64
56934 Off ch=2 n=61 v=0
56934 Off ch=2 n=64 v=0
57344 On ch=2 n=49 v=64
57446 Off ch=2 n=49 v=0
57856 On ch=2 n=61 v=64
57856 On ch=2 n=64 v=64
57958 Off ch=2 n=61 v=0
57958 Off ch=2 n=64 v=0
58368 On ch=2 n=44 v=64
58470 Off ch=2 n=44 v=0
58880 On ch=2 n=61 v=64
58880 On ch=2 n=64 v=64
58982 Off ch=2 n=61 v=0
58982 Off ch=2 n=64 v=0
59392 On ch=2 n=49 v=64
59494 Off ch=2 n=49 v=0
59904 On ch=2 n=61 v=64
59904 On ch=2 n=64 v=64
60006 Off ch=2 n=61 v=0
60006 Off ch=2 n=64 v=0
60416 On ch=2 n=44 v=64
60518 Off ch=2 n=44 v=0
60928 On ch=2 n=61 v=64
60928 On ch=2 n=64 v=64
61030 Off ch=2 n=61 v=0
61030 Off ch=2 n=64 v=0
61440 On ch=2 n=42 v=64
61542 Off ch=2 n=42 v=0
61952 On ch=2 n=57 v=64
61952 On ch=2 n=61 v=64
62054 Off ch=2 n=57 v=0
62054 Off ch=2 n=61 v=0
62464 On ch=2 n=49 v=64
62566 Off ch=2 n=49 v=0
62976 On ch=2 n=57 v=64
62976 On ch=2 n=61 v=64
63078 Off ch=2 n=57 v=0
63078 Off ch=2 n=61 v=0
63488 On ch=2 n=42 v=64
63590 Off ch=2 n=42 v=0
64000 On ch=2 n=57 v=64
64000 On ch=2 n=61 v=64
64102 Off ch=2 n=57 v=0
64102 Off ch=2 n=61 v=0
64512 On ch=2 n=49 v=64
64614 Off ch=2 n=49 v=0
65024 On ch=2 n=57 v=64
65024 On ch=2 n=61 v=64
65126 Off ch=2 n=57 v=0
65126 Off ch=2 n=61 v=0
65536 On ch=2 n=44 v=64
65638 Off ch=2 n=44 v=0
66048 On ch=2 n=60 v=64
66048 On ch=2 n=66 v=64
66150 Off ch=2 n=60 v=0
66150 Off ch=2 n=66 v=0
66560 On ch=2 n=51 v=64
66662 Off ch=2 n=51 v=0
67072 On ch=2 n=60 v=64
67072 On ch=2 n=66 v=64
67174 Off ch=2 n=60 v=0
67174 Off ch=2 n=66 v=0
67584 On ch=2 n=44 v=64
67686 Off ch=2 n=44 v=0
68096 On ch=2 n=60 v=64
68096 On ch=2 n=66 v=64
68198 Off ch=2 n=60 v=0
68198 Off ch=2 n=66 v=0
68608 On ch=2 n=51 v=64
68710 Off ch=2 n=51 v=0
69120 On ch=2 n=60 v=64
69120 On ch=2 n=66 v=64
69222 Off ch=2 n=60 v=0
69222 Off ch=2 n=66 v=0
69632 On ch=2 n=37 v=64
69632 On ch=2 n=49 v=64
70144 Off ch=2 n=37 v=0
70144 Off ch=2 n=49 v=0
70144 On ch=2 n=32 v=64
70144 On ch=2 n=44 v=64
70656 Off ch=2 n=32 v=0
70656 Off ch=2 n=44 v=0
70656 On ch=2 n=32 v=64
70656 On ch=2 n=44 v=64
71168 Off ch=2 n=32 v=0
71168 Off ch=2 n=44 v=0
71168 On ch=2 n=32 v=64
71168 On ch=2 n=44 v=64
71680 Off ch=2 n=32 v=0
71680 Off ch=2 n=44 v=0
72192 On ch=2 n=32 v=64
72192 On ch=2 n=44 v=64
72704 Off ch=2 n=32 v=0
72704 Off ch=2 n=44 v=0
72704 On ch=2 n=34 v=64
72704 On ch=2 n=46 v=64
73216 Off ch=2 n=34 v=0
73216 Off ch=2 n=46 v=0
73216 On ch=2 n=36 v=64
73216 On ch=2 n=48 v=64
73728 Off ch=2 n=36 v=0
73728 Off ch=2 n=48 v=0
73728 On ch=2 n=49 v=64
73830 Off ch=2 n=49 v=0
74240 On ch=2 n=61 v=64
74240 On ch=2 n=64 v=64
74342 Off ch=2 n=61 v=0
74342 Off ch=2 n=64 v=0
74752 On ch=2 n=44 v=64
74854 Off ch=2 n=44 v=0
75264 On ch=2 n=61 v=64
75264 On ch=2 n=64 v=64
75366 Off ch=2 n=61 v=0
75366 Off ch=2 n=64 v=0
75776 On ch=2 n=49 v=64
75878 Off ch=2 n=49 v=0
76288 On ch=2 n=61 v=64
76288 On ch=2 n=64 v=64
76390 Off ch=2 n=61 v=0
76390 Off ch=2 n=64 v=0
76800 On ch=2 n=44 v=64
76902 Off ch=2 n=44 v=0
77312 On ch=2 n=61 v=64
77312 On ch=2 n=64 v=64
77414 Off ch=2 n=61 v=0
77414 Off ch=2 n=64 v=0
77824 On ch=2 n=42 v=64
77926 Off ch=2 n=42 v=0
78336 On ch=2 n=57 v=64
78336 On ch=2 n=61 v=64
78438 Off ch=2 n=57 v=0
78438 Off ch=2 n=61 v=0
78848 On ch=2 n=49 v=64
78950 Off ch=2 n=49 v=0
79360 On ch=2 n=57 v=64
79360 On ch=2 n=61 v=64
79462 Off ch=2 n=57 v=0
79462 Off ch=2 n=61 v=0
79872 On ch=2 n=42 v=64
79974 Off ch=2 n=42 v=0
80384 On ch=2 n=57 v=64
80384 On ch=2 n=61 v=64
80486 Off ch=2 n=57 v=0
80486 Off ch=2 n=61 v=0
80896 On ch=2 n=49 v=64
80998 Off ch=2 n=49 v=0
81408 On ch=2 n=57 v=64
81408 On ch=2 n=61 v=64
81510 Off ch=2 n=57 v=0
81510 Off ch=2 n=61 v=0
81920 On ch=2 n=44 v=64
82022 Off ch=2 n=44 v=0
82432 On ch=2 n=60 v=64
82432 On ch=2 n=66 v=64
82534 Off ch=2 n=60 v=0
82534 Off ch=2 n=66 v=0
82944 On ch=2 n=51 v=64
83046 Off ch=2 n=51 v=0
83456 On ch=2 n=60 v=64
83456 On ch=2 n=66 v=64
83558 Off ch=2 n=60 v=0
83558 Off ch=2 n=66 v=0
83968 On ch=2 n=44 v=64
84070 Off ch=2 n=44 v=0
84480 On ch=2 n=60 v=64
84480 On ch=2 n=66 v=64
84582 Off ch=2 n=60 v=0
84582 Off ch=2 n=66 v=0
84992 On ch=2 n=51 v=64
85094 Off ch=2 n=51 v=0
85504 On ch=2 n=60 v=64
85504 On ch=2 n=66 v=64
85606 Off ch=2 n=60 v=0
85606 Off ch=2 n=66 v=0
86016 On ch=2 n=49 v=64
86528 Off ch=2 n=49 v=0
88064 On ch=2 n=37 v=64
88064 On ch=2 n=49 v=64
88576 Off ch=2 n=37 v=0
88576 Off ch=2 n=49 v=0
88577 Meta TrkEnd
TrkEnd
MTrk
0 Meta 0x09  4c 6f 6f 70 42 65 20 49 6e 74 65 72 6e 61 6c 20 4d 49 44 49
0 Meta TrkName "Empty"
0 PrCh ch=1 p=0
0 Par ch=1 c=7 v=108
0 Par ch=1 c=10 v=64
2048 On ch=1 n=68 v=64
3072 Off ch=1 n=68 v=0
3072 On ch=1 n=80 v=64
3584 Off ch=1 n=80 v=0
3584 On ch=1 n=81 v=64
4096 Off ch=1 n=81 v=0
4096 On ch=1 n=80 v=64
4608 Off ch=1 n=80 v=0
4608 On ch=1 n=78 v=64
5120 Off ch=1 n=78 v=0
5120 On ch=1 n=75 v=64
5632 Off ch=1 n=75 v=0
5632 On ch=1 n=68 v=64
6144 Off ch=1 n=68 v=0
6144 On ch=1 n=78 v=64
6656 Off ch=1 n=78 v=0
6656 On ch=1 n=80 v=64
7168 Off ch=1 n=80 v=0
7168 On ch=1 n=78 v=64
7680 Off ch=1 n=78 v=0
7680 On ch=1 n=76 v=64
8192 Off ch=1 n=76 v=0
8192 On ch=1 n=73 v=64
8704 Off ch=1 n=73 v=0
8704 On ch=1 n=68 v=64
9216 Off ch=1 n=68 v=0
9216 On ch=1 n=76 v=64
9728 Off ch=1 n=76 v=0
9728 On ch=1 n=78 v=64
10240 Off ch=1 n=78 v=0
10240 On ch=1 n=76 v=64
10752 Off ch=1 n=76 v=0
10752 On ch=1 n=75 v=64
11264 Off ch=1 n=75 v=0
11264 On ch=1 n=72 v=64
11776 Off ch=1 n=72 v=0
11776 On ch=1 n=66 v=64
12288 Off ch=1 n=66 v=0
12288 On ch=1 n=75 v=64
12800 Off ch=1 n=75 v=0
12800 On ch=1 n=76 v=64
13312 Off ch=1 n=76 v=0
13312 On ch=1 n=75 v=64
13824 Off ch=1 n=75 v=0
13824 On ch=1 n=73 v=64
14336 Off ch=1 n=73 v=0
14336 On ch=1 n=69 v=64
14848 Off ch=1 n=69 v=0
14848 On ch=1 n=64 v=64
15360 Off ch=1 n=64 v=0
15360 On ch=1 n=73 v=64
15872 Off ch=1 n=73 v=0
15872 On ch=1 n=75 v=64
16384 Off ch=1 n=75 v=0
16384 On ch=1 n=73 v=64
16896 Off ch=1 n=73 v=0
16896 On ch=1 n=69 v=64
17408 Off ch=1 n=69 v=0
17408 On ch=1 n=73 v=64
17920 Off ch=1 n=73 v=0
17920 On ch=1 n=63 v=64
18432 Off ch=1 n=63 v=0
18432 On ch=1 n=73 v=64
18944 Off ch=1 n=73 v=0
18944 On ch=1 n=75 v=64
19456 Off ch=1 n=75 v=0
19456 On ch=1 n=73 v=64
19968 Off ch=1 n=73 v=0
19968 On ch=1 n=68 v=64
20480 Off ch=1 n=68 v=0
20480 On ch=1 n=73 v=64
20992 Off ch=1 n=73 v=0
20992 On ch=1 n=61 v=64
21504 Off ch=1 n=61 v=0
21504 On ch=1 n=68 v=64
22016 Off ch=1 n=68 v=0
22016 On ch=1 n=67 v=64
22528 Off ch=1 n=67 v=0
22528 On ch=1 n=68 v=64
23040 Off ch=1 n=68 v=0
23040 On ch=1 n=71 v=64
23552 Off ch=1 n=71 v=0
23552 On ch=1 n=69 v=64
24064 Off ch=1 n=69 v=0
24064 On ch=1 n=63 v=64
24576 Off ch=1 n=63 v=0
24576 On ch=1 n=64 v=64
25088 Off ch=1 n=64 v=0
25088 On ch=1 n=68 v=64
25600 Off ch=1 n=68 v=0
25600 On ch=1 n=73 v=64
26112 Off ch=1 n=73 v=0
26112 On ch=1 n=75 v=64
26624 Off ch=1 n=75 v=0
26624 On ch=1 n=76 v=64
27136 Off ch=1 n=76 v=0
27136 On ch=1 n=78 v=64
27648 Off ch=1 n=78 v=0
27648 On ch=1 n=80 v=64
28160 Off ch=1 n=80 v=0
28160 On ch=1 n=79 v=64
28672 Off ch=1 n=79 v=0
28672 On ch=1 n=80 v=64
29184 Off ch=1 n=80 v=0
29184 On ch=1 n=83 v=64
29696 Off ch=1 n=83 v=0
29696 On ch=1 n=81 v=64
30208 Off ch=1 n=81 v=0
30208 On ch=1 n=80 v=64
30592 On ch=1 n=78 v=64
30720 Off ch=1 n=80 v=0
30720 Off ch=1 n=78 v=0
30720 On ch=1 n=80 v=64
31232 Off ch=1 n=80 v=0
31616 On ch=1 n=75 v=64
31744 Off ch=1 n=75 v=0
31744 On ch=1 n=76 v=64
32256 Off ch=1 n=76 v=0
32640 On ch=1 n=72 v=64
32768 Off ch=1 n=72 v=0
32768 On ch=1 n=73 v=64
33280 Off ch=1 n=73 v=0
33792 On ch=1 n=68 v=64
34304 Off ch=1 n=68 v=0
34304 On ch=1 n=67 v=64
34816 Off ch=1 n=67 v=0
34816 On ch=1 n=68 v=64
35328 Off ch=1 n=68 v=0
35328 On ch=1 n=71 v=64
35840 Off ch=1 n=71 v=0
35840 On ch=1 n=69 v=64
36352 Off ch=1 n=69 v=0
36352 On ch=1 n=68 v=64
36736 On ch=1 n=66 v=64
36864 Off ch=1 n=68 v=0
36864 Off ch=1 n=66 v=0
36864 On ch=1 n=68 v=64
37376 Off ch=1 n=68 v=0
37760 On ch=1 n=63 v=64
37888 Off ch=1 n=63 v=0
37888 On ch=1 n=64 v=64
38400 Off ch=1 n=64 v=0
38784 On ch=1 n=59 v=64
38912 Off ch=1 n=59 v=0
38912 On ch=1 n=61 v=64
39424 Off ch=1 n=61 v=0
39808 On ch=1 n=68 v=64
39936 Off ch=1 n=68 v=0
39936 On ch=1 n=69 v=64
40448 Off ch=1 n=69 v=0
40832 On ch=1 n=73 v=64
40960 Off ch=1 n=73 v=0
40960 On ch=1 n=74 v=64
41472 Off ch=1 n=74 v=0
41856 On ch=1 n=77 v=64
41984 Off ch=1 n=77 v=0
41984 On ch=1 n=78 v=64
42496 Off ch=1 n=78 v=0
42880 On ch=1 n=80 v=64
43008 Off ch=1 n=80 v=0
43008 On ch=1 n=81 v=64
43520 Off ch=1 n=81 v=0
43904 On ch=1 n=85 v=64
44032 Off ch=1 n=85 v=0
44032 On ch=1 n=86 v=64
44544 Off ch=1 n=86 v=0
44928 On ch=1 n=89 v=64
45056 Off ch=1 n=89 v=0
45056 On ch=1 n=90 v=64
45568 Off ch=1 n=90 v=0
46080 On ch=1 n=87 v=64
46592 Off ch=1 n=87 v=0
46592 On ch=1 n=88 v=64
47104 Off ch=1 n=88 v=0
47104 On ch=1 n=89 v=64
47616 Off ch=1 n=89 v=0
47616 On ch=1 n=90 v=64
48128 Off ch=1 n=90 v=0
48128 On ch=1 n=91 v=64
48640 Off ch=1 n=91 v=0
48640 On ch=1 n=92 v=64
49152 Off ch=1 n=92 v=0
49152 On ch=1 n=97 v=64
49562 Off ch=1 n=97 v=0
57344 On ch=1 n=67 v=64
57600 Off ch=1 n=67 v=0
57600 On ch=1 n=68 v=64
57856 Off ch=1 n=68 v=0
57856 On ch=1 n=73 v=64
58112 Off ch=1 n=73 v=0
58112 On ch=1 n=67 v=64
58368 Off ch=1 n=67 v=0
58368 On ch=1 n=68 v=64
58624 Off ch=1 n=68 v=0
58624 On ch=1 n=73 v=64
58880 Off ch=1 n=73 v=0
58880 On ch=1 n=67 v=64
59136 Off ch=1 n=67 v=0
59136 On ch=1 n=68 v=64
59392 Off ch=1 n=68 v=0
59392 On ch=1 n=76 v=64
59648 Off ch=1 n=76 v=0
59648 On ch=1 n=67 v=64
59904 Off ch=1 n=67 v=0
59904 On ch=1 n=68 v=64
60160 Off ch=1 n=68 v=0
60160 On ch=1 n=73 v=64
60416 Off ch=1 n=73 v=0
60416 On ch=1 n=67 v=64
60672 Off ch=1 n=67 v=0
60672 On ch=1 n=68 v=64
60928 Off ch=1 n=68 v=0
60928 On ch=1 n=76 v=64
61184 Off ch=1 n=76 v=0
61184 On ch=1 n=73 v=64
61440 Off ch=1 n=73 v=0
61440 On ch=1 n=69 v=64
61696 Off ch=1 n=69 v=0
61696 On ch=1 n=73 v=64
61952 Off ch=1 n=73 v=0
61952 On ch=1 n=78 v=64
62208 Off ch=1 n=78 v=0
62208 On ch=1 n=69 v=64
62464 Off ch=1 n=69 v=0
62464 On ch=1 n=73 v=64
62720 Off ch=1 n=73 v=0
62720 On ch=1 n=76 v=64
62976 Off ch=1 n=76 v=0
62976 On ch=1 n=69 v=64
63232 Off ch=1 n=69 v=0
63232 On ch=1 n=73 v=64
63488 Off ch=1 n=73 v=0
63488 On ch=1 n=75 v=64
63744 Off ch=1 n=75 v=0
63744 On ch=1 n=69 v=64
64000 Off ch=1 n=69 v=0
64000 On ch=1 n=73 v=64
64256 Off ch=1 n=73 v=0
64256 On ch=1 n=76 v=64
64512 Off ch=1 n=76 v=0
64512 On ch=1 n=69 v=64
64768 Off ch=1 n=69 v=0
64768 On ch=1 n=73 v=64
65024 Off ch=1 n=73 v=0
65024 On ch=1 n=75 v=64
65280 Off ch=1 n=75 v=0
65280 On ch=1 n=73 v=64
65536 Off ch=1 n=73 v=0
65536 On ch=1 n=72 v=64
65792 Off ch=1 n=72 v=0
65792 On ch=1 n=73 v=64
66048 Off ch=1 n=73 v=0
66048 On ch=1 n=81 v=64
66304 Off ch=1 n=81 v=0
66304 On ch=1 n=72 v=64
66560 Off ch=1 n=72 v=0
66560 On ch=1 n=73 v=64
66816 Off ch=1 n=73 v=0
66816 On ch=1 n=80 v=64
67072 Off ch=1 n=80 v=0
67072 On ch=1 n=72 v=64
67328 Off ch=1 n=72 v=0
67328 On ch=1 n=73 v=64
67584 Off ch=1 n=73 v=0
67584 On ch=1 n=78 v=64
67840 Off ch=1 n=78 v=0
67840 On ch=1 n=72 v=64
68096 Off ch=1 n=72 v=0
68096 On ch=1 n=73 v=64
68352 Off ch=1 n=73 v=0
68352 On ch=1 n=76 v=64
68608 Off ch=1 n=76 v=0
68608 On ch=1 n=72 v=64
68864 Off ch=1 n=72 v=0
68864 On ch=1 n=73 v=64
69120 Off ch=1 n=73 v=0
69120 On ch=1 n=75 v=64
69376 Off ch=1 n=75 v=0
69376 On ch=1 n=76 v=64
69632 Off ch=1 n=76 v=0
69632 On ch=1 n=73 v=64
70656 Off ch=1 n=73 v=0
70656 On ch=1 n=55 v=64
70912 Off ch=1 n=55 v=0
70912 On ch=1 n=56 v=64
71168 Off ch=1 n=56 v=0
71168 On ch=1 n=57 v=64
71424 Off ch=1 n=57 v=0
71424 On ch=1 n=58 v=64
71680 Off ch=1 n=58 v=0
71680 On ch=1 n=59 v=64
71936 Off ch=1 n=59 v=0
71936 On ch=1 n=60 v=64
72192 Off ch=1 n=60 v=0
72192 On ch=1 n=61 v=64
72448 Off ch=1 n=61 v=0
72448 On ch=1 n=62 v=64
72704 Off ch=1 n=62 v=0
72704 On ch=1 n=63 v=64
72960 Off ch=1 n=63 v=0
72960 On ch=1 n=64 v=64
73216 Off ch=1 n=64 v=0
73216 On ch=1 n=65 v=64
73472 Off ch=1 n=65 v=0
73472 On ch=1 n=66 v=64
73728 Off ch=1 n=66 v=0
73728 On ch=1 n=67 v=64
73984 Off ch=1 n=67 v=0
73984 On ch=1 n=68 v=64
74240 Off ch=1 n=68 v=0
74240 On ch=1 n=73 v=64
74496 Off ch=1 n=73 v=0
74496 On ch=1 n=67 v=64
74752 Off ch=1 n=67 v=0
74752 On ch=1 n=68 v=64
75008 Off ch=1 n=68 v=0
75008 On ch=1 n=73 v=64
75264 Off ch=1 n=73 v=0
75264 On ch=1 n=67 v=64
75520 Off ch=1 n=67 v=0
75520 On ch=1 n=68 v=64
75776 Off ch=1 n=68 v=0
75776 On ch=1 n=76 v=64
76032 Off ch=1 n=76 v=0
76032 On ch=1 n=67 v=64
76288 Off ch=1 n=67 v=0
76288 On ch=1 n=68 v=64
76544 Off ch=1 n=68 v=0
76544 On ch=1 n=73 v=64
76800 Off ch=1 n=73 v=0
76800 On ch=1 n=67 v=64
77056 Off ch=1 n=67 v=0
77056 On ch=1 n=68 v=64
77312 Off ch=1 n=68 v=0
77312 On ch=1 n=76 v=64
77568 Off ch=1 n=76 v=0
77568 On ch=1 n=73 v=64
77824 Off ch=1 n=73 v=0
77824 On ch=1 n=69 v=64
78080 Off ch=1 n=69 v=0
78080 On ch=1 n=73 v=64
78336 Off ch=1 n=73 v=0
78336 On ch=1 n=78 v=64
78592 Off ch=1 n=78 v=0
78592 On ch=1 n=69 v=64
78848 Off ch=1 n=69 v=0
78848 On ch=1 n=73 v=64
79104 Off ch=1 n=73 v=0
79104 On ch=1 n=76 v=64
79360 Off ch=1 n=76 v=0
79360 On ch=1 n=69 v=64
79616 Off ch=1 n=69 v=0
79616 On ch=1 n=73 v=64
79872 Off ch=1 n=73 v=0
79872 On ch=1 n=75 v=64
80128 Off ch=1 n=75 v=0
80128 On ch=1 n=69 v=64
80384 Off ch=1 n=69 v=0
80384 On ch=1 n=73 v=64
80640 Off ch=1 n=73 v=0
80640 On ch=1 n=76 v=64
80896 Off ch=1 n=76 v=0
80896 On ch=1 n=69 v=64
81152 Off ch=1 n=69 v=0
81152 On ch=1 n=73 v=64
81408 Off ch=1 n=73 v=0
81408 On ch=1 n=75 v=64
81664 Off ch=1 n=75 v=0
81664 On ch=1 n=73 v=64
81920 Off ch=1 n=73 v=0
81920 On ch=1 n=72 v=64
82176 Off ch=1 n=72 v=0
82176 On ch=1 n=73 v=64
82432 Off ch=1 n=73 v=0
82432 On ch=1 n=81 v=64
82688 Off ch=1 n=81 v=0
82688 On ch=1 n=72 v=64
82944 Off ch=1 n=72 v=0
82944 On ch=1 n=73 v=64
83200 Off ch=1 n=73 v=0
83200 On ch=1 n=80 v=64
83456 Off ch=1 n=80 v=0
83456 On ch=1 n=72 v=64
83712 Off ch=1 n=72 v=0
83712 On ch=1 n=73 v=64
83968 Off ch=1 n=73 v=0
83968 On ch=1 n=78 v=64
84224 Off ch=1 n=78 v=0
84224 On ch=1 n=72 v=64
84480 Off ch=1 n=72 v=0
84480 On ch=1 n=73 v=64
84736 Off ch=1 n=73 v=0
84736 On ch=1 n=76 v=64
84992 Off ch=1 n=76 v=0
84992 On ch=1 n=72 v=64
85248 Off ch=1 n=72 v=0
85248 On ch=1 n=73 v=64
85504 Off ch=1 n=73 v=0
85504 On ch=1 n=75 v=64
85760 Off ch=1 n=75 v=0
85760 On ch=1 n=76 v=64
86016 Off ch=1 n=76 v=0
86016 On ch=1 n=73 v=64
86528 Off ch=1 n=73 v=0
88064 On ch=1 n=85 v=64
88064 On ch=1 n=88 v=64
88064 On ch=1 n=92 v=64
88064 On ch=1 n=97 v=64
88576 Off ch=1 n=85 v=0
88576 Off ch=1 n=88 v=0
88576 Off ch=1 n=92 v=0
88576 Off ch=1 n=97 v=0
88577 Meta TrkEnd
TrkEnd
