MFile 1 3 480
MTrk
0 Meta TrkName "Time Travel Theme"
0 TimeSig 4/4 24 8
0 Tempo 468750
82560 Meta TrkEnd
TrkEnd
MTrk
0 Meta TrkName "Sound 1"
0 Meta InstrName "SB Live! Synth B [CF00]"
0 KeySig 1 major
0 PrCh ch=1 p=0
0 Par ch=1 c=10 v=64
1680 On ch=1 n=59 v=80
1896 Off ch=1 n=59 v=64
1920 On ch=1 n=64 v=80
2136 Off ch=1 n=64 v=64
2160 On ch=1 n=66 v=80
2376 Off ch=1 n=66 v=64
2400 On ch=1 n=67 v=80
2616 Off ch=1 n=67 v=64
2640 On ch=1 n=71 v=80
2856 Off ch=1 n=71 v=64
2880 On ch=1 n=69 v=80
3096 Off ch=1 n=69 v=64
3120 On ch=1 n=67 v=80
3336 Off ch=1 n=67 v=64
3360 On ch=1 n=66 v=80
3576 Off ch=1 n=66 v=64
3600 On ch=1 n=67 v=80
3816 Off ch=1 n=67 v=64
3840 On ch=1 n=66 v=80
4272 Off ch=1 n=66 v=64
4320 On ch=1 n=72 v=80
4968 Off ch=1 n=72 v=64
5040 On ch=1 n=71 v=80
5256 Off ch=1 n=71 v=64
5280 On ch=1 n=69 v=80
5496 Off ch=1 n=69 v=64
5520 On ch=1 n=66 v=80
5736 Off ch=1 n=66 v=64
5760 On ch=1 n=67 v=80
5976 Off ch=1 n=67 v=64
6000 On ch=1 n=71 v=80
6216 Off ch=1 n=71 v=64
6240 On ch=1 n=76 v=80
6888 Off ch=1 n=76 v=64
6960 On ch=1 n=69 v=80
7176 Off ch=1 n=69 v=64
7200 On ch=1 n=64 v=80
7416 Off ch=1 n=64 v=64
7440 On ch=1 n=67 v=80
7656 Off ch=1 n=67 v=64
7680 On ch=1 n=66 v=80
7896 Off ch=1 n=66 v=64
7920 On ch=1 n=69 v=80
8136 Off ch=1 n=69 v=64
8160 On ch=1 n=74 v=80
8808 Off ch=1 n=74 v=64
8880 On ch=1 n=62 v=80
9096 Off ch=1 n=62 v=64
9120 On ch=1 n=67 v=80
9336 Off ch=1 n=67 v=64
9360 On ch=1 n=66 v=80
9414 Off ch=1 n=66 v=64
9420 On ch=1 n=67 v=80
9474 Off ch=1 n=67 v=64
9480 On ch=1 n=66 v=80
9588 Off ch=1 n=66 v=64
9600 On ch=1 n=64 v=80
9816 Off ch=1 n=64 v=64
9840 On ch=1 n=67 v=80
10056 Off ch=1 n=67 v=64
10080 On ch=1 n=72 v=80
10728 Off ch=1 n=72 v=64
10800 On ch=1 n=69 v=80
11016 Off ch=1 n=69 v=64
11040 On ch=1 n=71 v=80
11256 Off ch=1 n=71 v=64
11280 On ch=1 n=72 v=80
11496 Off ch=1 n=72 v=64
11520 On ch=1 n=74 v=80
11736 Off ch=1 n=74 v=64
11760 On ch=1 n=71 v=80
11976 Off ch=1 n=71 v=64
12000 On ch=1 n=67 v=80
12432 Off ch=1 n=67 v=64
12480 On ch=1 n=64 v=80
12696 Off ch=1 n=64 v=64
12720 On ch=1 n=72 v=80
12936 Off ch=1 n=72 v=64
12960 On ch=1 n=66 v=80
12960 On ch=1 n=71 v=80
13176 Off ch=1 n=66 v=64
13176 Off ch=1 n=71 v=64
13200 On ch=1 n=69 v=80
13416 Off ch=1 n=69 v=64
13440 On ch=1 n=67 v=80
13656 Off ch=1 n=67 v=64
13680 On ch=1 n=69 v=80
13896 Off ch=1 n=69 v=64
13920 On ch=1 n=71 v=80
14352 Off ch=1 n=71 v=64
14400 On ch=1 n=69 v=80
14616 Off ch=1 n=69 v=64
14640 On ch=1 n=67 v=80
14856 Off ch=1 n=67 v=64
14880 On ch=1 n=66 v=80
15096 Off ch=1 n=66 v=64
15120 On ch=1 n=67 v=80
15336 Off ch=1 n=67 v=64
15360 On ch=1 n=66 v=80
15792 Off ch=1 n=66 v=64
15840 On ch=1 n=72 v=80
16488 Off ch=1 n=72 v=64
16560 On ch=1 n=71 v=80
16776 Off ch=1 n=71 v=64
16800 On ch=1 n=69 v=80
17016 Off ch=1 n=69 v=64
17040 On ch=1 n=66 v=80
17256 Off ch=1 n=66 v=64
17280 On ch=1 n=67 v=80
17496 Off ch=1 n=67 v=64
17520 On ch=1 n=71 v=80
17736 Off ch=1 n=71 v=64
17760 On ch=1 n=76 v=80
18408 Off ch=1 n=76 v=64
18480 On ch=1 n=69 v=80
18696 Off ch=1 n=69 v=64
18720 On ch=1 n=64 v=80
18936 Off ch=1 n=64 v=64
18960 On ch=1 n=67 v=80
19176 Off ch=1 n=67 v=64
19200 On ch=1 n=66 v=80
19416 Off ch=1 n=66 v=64
19440 On ch=1 n=69 v=80
19656 Off ch=1 n=69 v=64
19680 On ch=1 n=74 v=80
20328 Off ch=1 n=74 v=64
20400 On ch=1 n=62 v=80
20616 Off ch=1 n=62 v=64
20640 On ch=1 n=67 v=80
20856 Off ch=1 n=67 v=64
20880 On ch=1 n=66 v=80
20934 Off ch=1 n=66 v=64
20940 On ch=1 n=67 v=80
20994 Off ch=1 n=67 v=64
21000 On ch=1 n=66 v=80
21108 Off ch=1 n=66 v=64
21120 On ch=1 n=64 v=80
21336 Off ch=1 n=64 v=64
21360 On ch=1 n=67 v=80
21576 Off ch=1 n=67 v=64
21600 On ch=1 n=72 v=80
22248 Off ch=1 n=72 v=64
22320 On ch=1 n=69 v=80
22536 Off ch=1 n=69 v=64
22560 On ch=1 n=71 v=80
22776 Off ch=1 n=71 v=64
22800 On ch=1 n=72 v=80
23016 Off ch=1 n=72 v=64
23040 On ch=1 n=74 v=80
23256 Off ch=1 n=74 v=64
23280 On ch=1 n=71 v=80
23496 Off ch=1 n=71 v=64
23520 On ch=1 n=67 v=80
23952 Off ch=1 n=67 v=64
24000 On ch=1 n=64 v=80
24216 Off ch=1 n=64 v=64
24240 On ch=1 n=72 v=80
24456 Off ch=1 n=72 v=64
24480 On ch=1 n=66 v=80
24480 On ch=1 n=71 v=80
24696 Off ch=1 n=66 v=64
24696 Off ch=1 n=71 v=64
24720 On ch=1 n=69 v=80
24936 Off ch=1 n=69 v=64
24960 On ch=1 n=67 v=80
25392 Off ch=1 n=67 v=64
25440 On ch=1 n=79 v=80
26028 Off ch=1 n=79 v=64
26040 On ch=1 n=78 v=80
26148 Off ch=1 n=78 v=64
26160 On ch=1 n=81 v=80
26268 Off ch=1 n=81 v=64
26280 On ch=1 n=79 v=80
26388 Off ch=1 n=79 v=64
26400 On ch=1 n=78 v=80
26508 Off ch=1 n=78 v=64
26520 On ch=1 n=76 v=80
26628 Off ch=1 n=76 v=64
26640 On ch=1 n=75 v=80
26748 Off ch=1 n=75 v=64
26760 On ch=1 n=76 v=80
26868 Off ch=1 n=76 v=64
26880 On ch=1 n=74 v=80
26988 Off ch=1 n=74 v=64
27000 On ch=1 n=79 v=80
27108 Off ch=1 n=79 v=64
27120 On ch=1 n=83 v=80
27228 Off ch=1 n=83 v=64
27240 On ch=1 n=86 v=80
27348 Off ch=1 n=86 v=64
27360 On ch=1 n=84 v=80
27468 Off ch=1 n=84 v=64
27480 On ch=1 n=83 v=80
27588 Off ch=1 n=83 v=64
27600 On ch=1 n=81 v=80
27708 Off ch=1 n=81 v=64
27720 On ch=1 n=79 v=80
27828 Off ch=1 n=79 v=64
27840 On ch=1 n=84 v=80
27948 Off ch=1 n=84 v=64
27960 On ch=1 n=81 v=80
28068 Off ch=1 n=81 v=64
28080 On ch=1 n=80 v=80
28188 Off ch=1 n=80 v=64
28200 On ch=1 n=81 v=80
28308 Off ch=1 n=81 v=64
28320 On ch=1 n=78 v=80
28428 Off ch=1 n=78 v=64
28440 On ch=1 n=81 v=80
28548 Off ch=1 n=81 v=64
28560 On ch=1 n=74 v=80
28668 Off ch=1 n=74 v=64
28680 On ch=1 n=78 v=80
28788 Off ch=1 n=78 v=64
28800 On ch=1 n=79 v=80
29124 Off ch=1 n=79 v=64
29160 On ch=1 n=78 v=80
29268 Off ch=1 n=78 v=64
29280 On ch=1 n=79 v=80
29868 Off ch=1 n=79 v=64
29880 On ch=1 n=78 v=80
29988 Off ch=1 n=78 v=64
30000 On ch=1 n=81 v=80
30108 Off ch=1 n=81 v=64
30120 On ch=1 n=79 v=80
30228 Off ch=1 n=79 v=64
30240 On ch=1 n=78 v=80
30348 Off ch=1 n=78 v=64
30360 On ch=1 n=76 v=80
30468 Off ch=1 n=76 v=64
30480 On ch=1 n=75 v=80
30588 Off ch=1 n=75 v=64
30600 On ch=1 n=76 v=80
30708 Off ch=1 n=76 v=64
30720 On ch=1 n=74 v=80
30828 Off ch=1 n=74 v=64
30840 On ch=1 n=72 v=80
30948 Off ch=1 n=72 v=64
30960 On ch=1 n=71 v=80
31068 Off ch=1 n=71 v=64
31080 On ch=1 n=72 v=80
31188 Off ch=1 n=72 v=64
31200 On ch=1 n=74 v=80
31308 Off ch=1 n=74 v=64
31320 On ch=1 n=71 v=80
31428 Off ch=1 n=71 v=64
31440 On ch=1 n=69 v=80
31548 Off ch=1 n=69 v=64
31560 On ch=1 n=67 v=80
31668 Off ch=1 n=67 v=64
31680 On ch=1 n=72 v=80
31788 Off ch=1 n=72 v=64
31800 On ch=1 n=69 v=80
31908 Off ch=1 n=69 v=64
31920 On ch=1 n=68 v=80
32028 Off ch=1 n=68 v=64
32040 On ch=1 n=69 v=80
32148 Off ch=1 n=69 v=64
32160 On ch=1 n=66 v=80
32268 Off ch=1 n=66 v=64
32280 On ch=1 n=69 v=80
32388 Off ch=1 n=69 v=64
32400 On ch=1 n=62 v=80
32508 Off ch=1 n=62 v=64
32520 On ch=1 n=66 v=80
32628 Off ch=1 n=66 v=64
32640 On ch=1 n=67 v=80
32856 Off ch=1 n=67 v=64
32880 On ch=1 n=60 v=80
33096 Off ch=1 n=60 v=64
33120 On ch=1 n=59 v=80
33336 Off ch=1 n=59 v=64
33360 On ch=1 n=57 v=80
33576 Off ch=1 n=57 v=64
33600 On ch=1 n=59 v=80
34032 Off ch=1 n=59 v=64
34080 On ch=1 n=54 v=80
34080 On ch=1 n=59 v=80
34080 On ch=1 n=66 v=80
34512 Off ch=1 n=54 v=64
34512 Off ch=1 n=59 v=64
34512 Off ch=1 n=66 v=64
35040 On ch=1 n=64 v=80
35040 On ch=1 n=67 v=80
35040 On ch=1 n=71 v=80
35472 Off ch=1 n=64 v=64
35472 Off ch=1 n=67 v=64
35472 Off ch=1 n=71 v=64
36000 On ch=1 n=64 v=80
36000 On ch=1 n=67 v=80
36000 On ch=1 n=71 v=80
36432 Off ch=1 n=64 v=64
36432 Off ch=1 n=67 v=64
36432 Off ch=1 n=71 v=64
36960 On ch=1 n=64 v=80
36960 On ch=1 n=67 v=80
36960 On ch=1 n=71 v=80
37392 Off ch=1 n=64 v=64
37392 Off ch=1 n=67 v=64
37392 Off ch=1 n=71 v=64
37920 On ch=1 n=63 v=80
37920 On ch=1 n=66 v=80
37920 On ch=1 n=72 v=80
38352 Off ch=1 n=63 v=64
38352 Off ch=1 n=66 v=64
38352 Off ch=1 n=72 v=64
38880 On ch=1 n=64 v=80
38880 On ch=1 n=67 v=80
38880 On ch=1 n=71 v=80
39312 Off ch=1 n=64 v=64
39312 Off ch=1 n=67 v=64
39312 Off ch=1 n=71 v=64
39840 On ch=1 n=64 v=80
39840 On ch=1 n=67 v=80
39840 On ch=1 n=71 v=80
40272 Off ch=1 n=64 v=64
40272 Off ch=1 n=67 v=64
40272 Off ch=1 n=71 v=64
40800 On ch=1 n=64 v=80
40800 On ch=1 n=67 v=80
40800 On ch=1 n=71 v=80
41232 Off ch=1 n=64 v=64
41232 Off ch=1 n=67 v=64
41232 Off ch=1 n=71 v=64
41760 On ch=1 n=63 v=80
41760 On ch=1 n=66 v=80
41760 On ch=1 n=72 v=80
42192 Off ch=1 n=63 v=64
42192 Off ch=1 n=66 v=64
42192 Off ch=1 n=72 v=64
42240 On ch=1 n=55 v=80
42348 Off ch=1 n=55 v=64
42360 On ch=1 n=59 v=80
42468 Off ch=1 n=59 v=64
42480 On ch=1 n=66 v=80
42588 Off ch=1 n=66 v=64
42600 On ch=1 n=63 v=80
42708 Off ch=1 n=63 v=64
42720 On ch=1 n=67 v=80
42828 Off ch=1 n=67 v=64
42840 On ch=1 n=71 v=80
42948 Off ch=1 n=71 v=64
42960 On ch=1 n=78 v=80
43068 Off ch=1 n=78 v=64
43080 On ch=1 n=75 v=80
43188 Off ch=1 n=75 v=64
43200 On ch=1 n=76 v=80
43308 Off ch=1 n=76 v=64
43320 On ch=1 n=79 v=80
43428 Off ch=1 n=79 v=64
43440 On ch=1 n=88 v=80
43548 Off ch=1 n=88 v=64
43560 On ch=1 n=83 v=80
43668 Off ch=1 n=83 v=64
43680 On ch=1 n=90 v=80
43788 Off ch=1 n=90 v=64
43800 On ch=1 n=88 v=80
43908 Off ch=1 n=88 v=64
43920 On ch=1 n=91 v=80
44028 Off ch=1 n=91 v=64
44040 On ch=1 n=87 v=80
44148 Off ch=1 n=87 v=64
44160 On ch=1 n=88 v=80
44268 Off ch=1 n=88 v=64
44280 On ch=1 n=83 v=80
44388 Off ch=1 n=83 v=64
44400 On ch=1 n=86 v=80
44508 Off ch=1 n=86 v=64
44520 On ch=1 n=84 v=80
44628 Off ch=1 n=84 v=64
44640 On ch=1 n=83 v=80
44748 Off ch=1 n=83 v=64
44760 On ch=1 n=81 v=80
44868 Off ch=1 n=81 v=64
44880 On ch=1 n=76 v=80
44988 Off ch=1 n=76 v=64
45000 On ch=1 n=78 v=80
45108 Off ch=1 n=78 v=64
45120 On ch=1 n=79 v=80
45228 Off ch=1 n=79 v=64
45240 On ch=1 n=71 v=80
45348 Off ch=1 n=71 v=64
45360 On ch=1 n=67 v=80
45468 Off ch=1 n=67 v=64
45480 On ch=1 n=79 v=80
45588 Off ch=1 n=79 v=64
45600 On ch=1 n=78 v=80
45708 Off ch=1 n=78 v=64
45720 On ch=1 n=69 v=80
45828 Off ch=1 n=69 v=64
45840 On ch=1 n=66 v=80
45948 Off ch=1 n=66 v=64
45960 On ch=1 n=78 v=80
46068 Off ch=1 n=78 v=64
46080 On ch=1 n=67 v=80
46188 Off ch=1 n=67 v=64
46200 On ch=1 n=71 v=80
46308 Off ch=1 n=71 v=64
46320 On ch=1 n=78 v=80
46428 Off ch=1 n=78 v=64
46440 On ch=1 n=75 v=80
46548 Off ch=1 n=75 v=64
46560 On ch=1 n=79 v=80
46668 Off ch=1 n=79 v=64
46680 On ch=1 n=83 v=80
46788 Off ch=1 n=83 v=64
46800 On ch=1 n=90 v=80
46908 Off ch=1 n=90 v=64
46920 On ch=1 n=87 v=80
47028 Off ch=1 n=87 v=64
47040 On ch=1 n=88 v=80
47148 Off ch=1 n=88 v=64
47160 On ch=1 n=91 v=80
47268 Off ch=1 n=91 v=64
47280 On ch=1 n=100 v=80
47388 Off ch=1 n=100 v=64
47400 On ch=1 n=95 v=80
47508 Off ch=1 n=95 v=64
47520 On ch=1 n=102 v=80
47628 Off ch=1 n=102 v=64
47640 On ch=1 n=100 v=80
47748 Off ch=1 n=100 v=64
47760 On ch=1 n=103 v=80
47868 Off ch=1 n=103 v=64
47880 On ch=1 n=99 v=80
47988 Off ch=1 n=99 v=64
48000 On ch=1 n=100 v=80
48108 Off ch=1 n=100 v=64
48120 On ch=1 n=95 v=80
48228 Off ch=1 n=95 v=64
48240 On ch=1 n=98 v=80
48348 Off ch=1 n=98 v=64
48360 On ch=1 n=96 v=80
48468 Off ch=1 n=96 v=64
48480 On ch=1 n=95 v=80
48588 Off ch=1 n=95 v=64
48600 On ch=1 n=93 v=80
48708 Off ch=1 n=93 v=64
48720 On ch=1 n=88 v=80
48828 Off ch=1 n=88 v=64
48840 On ch=1 n=90 v=80
48948 Off ch=1 n=90 v=64
48960 On ch=1 n=91 v=80
49068 Off ch=1 n=91 v=64
49080 On ch=1 n=83 v=80
49188 Off ch=1 n=83 v=64
49200 On ch=1 n=79 v=80
49308 Off ch=1 n=79 v=64
49320 On ch=1 n=91 v=80
49428 Off ch=1 n=91 v=64
49440 On ch=1 n=90 v=80
49548 Off ch=1 n=90 v=64
49560 On ch=1 n=81 v=80
49668 Off ch=1 n=81 v=64
49680 On ch=1 n=78 v=80
49788 Off ch=1 n=78 v=64
49800 On ch=1 n=90 v=80
49908 Off ch=1 n=90 v=64
49920 On ch=1 n=89 v=80
50028 Off ch=1 n=89 v=64
50040 On ch=1 n=88 v=80
50148 Off ch=1 n=88 v=64
50160 On ch=1 n=87 v=80
50268 Off ch=1 n=87 v=64
50280 On ch=1 n=83 v=80
50388 Off ch=1 n=83 v=64
50400 On ch=1 n=86 v=80
50508 Off ch=1 n=86 v=64
50520 On ch=1 n=85 v=80
50628 Off ch=1 n=85 v=64
50640 On ch=1 n=82 v=80
50748 Off ch=1 n=82 v=64
50760 On ch=1 n=83 v=80
50868 Off ch=1 n=83 v=64
50880 On ch=1 n=84 v=80
50988 Off ch=1 n=84 v=64
51000 On ch=1 n=83 v=80
51108 Off ch=1 n=83 v=64
51120 On ch=1 n=78 v=80
51228 Off ch=1 n=78 v=64
51240 On ch=1 n=79 v=80
51348 Off ch=1 n=79 v=64
51360 On ch=1 n=83 v=80
51468 Off ch=1 n=83 v=64
51480 On ch=1 n=81 v=80
51588 Off ch=1 n=81 v=64
51600 On ch=1 n=76 v=80
51708 Off ch=1 n=76 v=64
51720 On ch=1 n=78 v=80
51828 Off ch=1 n=78 v=64
51840 On ch=1 n=79 v=80
51948 Off ch=1 n=79 v=64
51960 On ch=1 n=72 v=80
52068 Off ch=1 n=72 v=64
52080 On ch=1 n=76 v=80
52188 Off ch=1 n=76 v=64
52200 On ch=1 n=83 v=80
52308 Off ch=1 n=83 v=64
52320 On ch=1 n=81 v=80
52428 Off ch=1 n=81 v=64
52440 On ch=1 n=72 v=80
52548 Off ch=1 n=72 v=64
52560 On ch=1 n=83 v=80
52668 Off ch=1 n=83 v=64
52680 On ch=1 n=81 v=80
52788 Off ch=1 n=81 v=64
52800 On ch=1 n=78 v=80
52908 Off ch=1 n=78 v=64
52920 On ch=1 n=71 v=80
53028 Off ch=1 n=71 v=64
53040 On ch=1 n=75 v=80
53148 Off ch=1 n=75 v=64
53160 On ch=1 n=83 v=80
53268 Off ch=1 n=83 v=64
53280 On ch=1 n=81 v=80
53388 Off ch=1 n=81 v=64
53400 On ch=1 n=71 v=80
53508 Off ch=1 n=71 v=64
53520 On ch=1 n=83 v=80
53628 Off ch=1 n=83 v=64
53640 On ch=1 n=81 v=80
53748 Off ch=1 n=81 v=64
53880 On ch=1 n=76 v=80
53988 Off ch=1 n=76 v=64
54000 On ch=1 n=75 v=80
54108 Off ch=1 n=75 v=64
54120 On ch=1 n=71 v=80
54228 Off ch=1 n=71 v=64
54240 On ch=1 n=74 v=80
54348 Off ch=1 n=74 v=64
54360 On ch=1 n=73 v=80
54468 Off ch=1 n=73 v=64
54480 On ch=1 n=70 v=80
54588 Off ch=1 n=70 v=64
54600 On ch=1 n=71 v=80
54708 Off ch=1 n=71 v=64
54720 On ch=1 n=72 v=80
54828 Off ch=1 n=72 v=64
54840 On ch=1 n=71 v=80
54948 Off ch=1 n=71 v=64
54960 On ch=1 n=66 v=80
55068 Off ch=1 n=66 v=64
55080 On ch=1 n=67 v=80
55188 Off ch=1 n=67 v=64
55200 On ch=1 n=71 v=80
55308 Off ch=1 n=71 v=64
55320 On ch=1 n=69 v=80
55428 Off ch=1 n=69 v=64
55440 On ch=1 n=64 v=80
55548 Off ch=1 n=64 v=64
55560 On ch=1 n=66 v=80
55668 Off ch=1 n=66 v=64
55680 On ch=1 n=67 v=80
55788 Off ch=1 n=67 v=64
55800 On ch=1 n=60 v=80
55908 Off ch=1 n=60 v=64
55920 On ch=1 n=64 v=80
56028 Off ch=1 n=64 v=64
56040 On ch=1 n=71 v=80
56148 Off ch=1 n=71 v=64
56160 On ch=1 n=69 v=80
56268 Off ch=1 n=69 v=64
56280 On ch=1 n=60 v=80
56388 Off ch=1 n=60 v=64
56400 On ch=1 n=71 v=80
56508 Off ch=1 n=71 v=64
56520 On ch=1 n=69 v=80
56628 Off ch=1 n=69 v=64
56640 On ch=1 n=66 v=80
56748 Off ch=1 n=66 v=64
56760 On ch=1 n=59 v=80
56868 Off ch=1 n=59 v=64
56880 On ch=1 n=63 v=80
56988 Off ch=1 n=63 v=64
57000 On ch=1 n=71 v=80
57108 Off ch=1 n=71 v=64
57120 On ch=1 n=69 v=80
57228 Off ch=1 n=69 v=64
57240 On ch=1 n=59 v=80
57348 Off ch=1 n=59 v=64
57360 On ch=1 n=71 v=80
57468 Off ch=1 n=71 v=64
57480 On ch=1 n=69 v=80
57588 Off ch=1 n=69 v=64
58080 On ch=1 n=64 v=80
58080 On ch=1 n=67 v=80
58080 On ch=1 n=71 v=80
58512 Off ch=1 n=64 v=64
58512 Off ch=1 n=67 v=64
58512 Off ch=1 n=71 v=64
59040 On ch=1 n=64 v=80
59040 On ch=1 n=67 v=80
59040 On ch=1 n=71 v=80
59472 Off ch=1 n=64 v=64
59472 Off ch=1 n=67 v=64
59472 Off ch=1 n=71 v=64
60000 On ch=1 n=64 v=80
60000 On ch=1 n=67 v=80
60000 On ch=1 n=71 v=80
60432 Off ch=1 n=64 v=64
60432 Off ch=1 n=67 v=64
60432 Off ch=1 n=71 v=64
60960 On ch=1 n=63 v=80
60960 On ch=1 n=66 v=80
60960 On ch=1 n=72 v=80
61392 Off ch=1 n=63 v=64
61392 Off ch=1 n=66 v=64
61392 Off ch=1 n=72 v=64
61920 On ch=1 n=64 v=80
61920 On ch=1 n=67 v=80
61920 On ch=1 n=71 v=80
62352 Off ch=1 n=64 v=64
62352 Off ch=1 n=67 v=64
62352 Off ch=1 n=71 v=64
62880 On ch=1 n=64 v=80
62880 On ch=1 n=67 v=80
62880 On ch=1 n=71 v=80
63312 Off ch=1 n=64 v=64
63312 Off ch=1 n=67 v=64
63312 Off ch=1 n=71 v=64
63840 On ch=1 n=64 v=80
63840 On ch=1 n=67 v=80
63840 On ch=1 n=71 v=80
64272 Off ch=1 n=64 v=64
64272 Off ch=1 n=67 v=64
64272 Off ch=1 n=71 v=64
64800 On ch=1 n=63 v=80
64800 On ch=1 n=66 v=80
64800 On ch=1 n=72 v=80
65232 Off ch=1 n=63 v=64
65232 Off ch=1 n=66 v=64
65232 Off ch=1 n=72 v=64
65280 On ch=1 n=55 v=80
65388 Off ch=1 n=55 v=64
65400 On ch=1 n=59 v=80
65508 Off ch=1 n=59 v=64
65520 On ch=1 n=66 v=80
65628 Off ch=1 n=66 v=64
65640 On ch=1 n=63 v=80
65748 Off ch=1 n=63 v=64
65760 On ch=1 n=67 v=80
65868 Off ch=1 n=67 v=64
65880 On ch=1 n=71 v=80
65988 Off ch=1 n=71 v=64
66000 On ch=1 n=78 v=80
66108 Off ch=1 n=78 v=64
66120 On ch=1 n=75 v=80
66228 Off ch=1 n=75 v=64
66240 On ch=1 n=76 v=80
66348 Off ch=1 n=76 v=64
66360 On ch=1 n=79 v=80
66468 Off ch=1 n=79 v=64
66480 On ch=1 n=88 v=80
66588 Off ch=1 n=88 v=64
66600 On ch=1 n=83 v=80
66708 Off ch=1 n=83 v=64
66720 On ch=1 n=90 v=80
66828 Off ch=1 n=90 v=64
66840 On ch=1 n=88 v=80
66948 Off ch=1 n=88 v=64
66960 On ch=1 n=91 v=80
67068 Off ch=1 n=91 v=64
67080 On ch=1 n=87 v=80
67188 Off ch=1 n=87 v=64
67200 On ch=1 n=88 v=80
67308 Off ch=1 n=88 v=64
67320 On ch=1 n=83 v=80
67428 Off ch=1 n=83 v=64
67440 On ch=1 n=86 v=80
67548 Off ch=1 n=86 v=64
67560 On ch=1 n=84 v=80
67668 Off ch=1 n=84 v=64
67680 On ch=1 n=83 v=80
67788 Off ch=1 n=83 v=64
67800 On ch=1 n=81 v=80
67908 Off ch=1 n=81 v=64
67920 On ch=1 n=76 v=80
68028 Off ch=1 n=76 v=64
68040 On ch=1 n=78 v=80
68148 Off ch=1 n=78 v=64
68160 On ch=1 n=79 v=80
68268 Off ch=1 n=79 v=64
68280 On ch=1 n=71 v=80
68388 Off ch=1 n=71 v=64
68400 On ch=1 n=67 v=80
68508 Off ch=1 n=67 v=64
68520 On ch=1 n=79 v=80
68628 Off ch=1 n=79 v=64
68640 On ch=1 n=78 v=80
68748 Off ch=1 n=78 v=64
68760 On ch=1 n=69 v=80
68868 Off ch=1 n=69 v=64
68880 On ch=1 n=66 v=80
68988 Off ch=1 n=66 v=64
69000 On ch=1 n=78 v=80
69108 Off ch=1 n=78 v=64
69120 On ch=1 n=67 v=80
69228 Off ch=1 n=67 v=64
69240 On ch=1 n=71 v=80
69348 Off ch=1 n=71 v=64
69360 On ch=1 n=78 v=80
69468 Off ch=1 n=78 v=64
69480 On ch=1 n=75 v=80
69588 Off ch=1 n=75 v=64
69600 On ch=1 n=79 v=80
69708 Off ch=1 n=79 v=64
69720 On ch=1 n=83 v=80
69828 Off ch=1 n=83 v=64
69840 On ch=1 n=90 v=80
69948 Off ch=1 n=90 v=64
69960 On ch=1 n=87 v=80
70068 Off ch=1 n=87 v=64
70080 On ch=1 n=88 v=80
70188 Off ch=1 n=88 v=64
70200 On ch=1 n=91 v=80
70308 Off ch=1 n=91 v=64
70320 On ch=1 n=100 v=80
70428 Off ch=1 n=100 v=64
70440 On ch=1 n=95 v=80
70548 Off ch=1 n=95 v=64
70560 On ch=1 n=102 v=80
70668 Off ch=1 n=102 v=64
70680 On ch=1 n=100 v=80
70788 Off ch=1 n=100 v=64
70800 On ch=1 n=103 v=80
70908 Off ch=1 n=103 v=64
70920 On ch=1 n=99 v=80
71028 Off ch=1 n=99 v=64
71040 On ch=1 n=100 v=80
71148 Off ch=1 n=100 v=64
71160 On ch=1 n=95 v=80
71268 Off ch=1 n=95 v=64
71280 On ch=1 n=98 v=80
71388 Off ch=1 n=98 v=64
71400 On ch=1 n=96 v=80
71508 Off ch=1 n=96 v=64
71520 On ch=1 n=95 v=80
71628 Off ch=1 n=95 v=64
71640 On ch=1 n=93 v=80
71748 Off ch=1 n=93 v=64
71760 On ch=1 n=88 v=80
71868 Off ch=1 n=88 v=64
71880 On ch=1 n=90 v=80
71988 Off ch=1 n=90 v=64
72000 On ch=1 n=91 v=80
72108 Off ch=1 n=91 v=64
72120 On ch=1 n=83 v=80
72228 Off ch=1 n=83 v=64
72240 On ch=1 n=79 v=80
72348 Off ch=1 n=79 v=64
72360 On ch=1 n=91 v=80
72468 Off ch=1 n=91 v=64
72480 On ch=1 n=90 v=80
72588 Off ch=1 n=90 v=64
72600 On ch=1 n=81 v=80
72708 Off ch=1 n=81 v=64
72720 On ch=1 n=78 v=80
72828 Off ch=1 n=78 v=64
72840 On ch=1 n=90 v=80
72948 Off ch=1 n=90 v=64
72960 On ch=1 n=88 v=80
72960 On ch=1 n=83 v=80
72960 On ch=1 n=79 v=80
72960 On ch=1 n=76 v=80
73176 Off ch=1 n=88 v=64
73176 Off ch=1 n=83 v=64
73176 Off ch=1 n=79 v=64
73176 Off ch=1 n=76 v=64
73200 On ch=1 n=83 v=80
73200 On ch=1 n=76 v=80
73200 On ch=1 n=71 v=80
73308 Off ch=1 n=83 v=64
73308 Off ch=1 n=76 v=64
73308 Off ch=1 n=71 v=64
73320 On ch=1 n=83 v=80
73320 On ch=1 n=76 v=80
73320 On ch=1 n=71 v=80
73428 Off ch=1 n=83 v=64
73428 Off ch=1 n=76 v=64
73428 Off ch=1 n=71 v=64
73440 On ch=1 n=83 v=80
73440 On ch=1 n=76 v=80
73440 On ch=1 n=71 v=80
73656 Off ch=1 n=83 v=64
73656 Off ch=1 n=76 v=64
73656 Off ch=1 n=71 v=64
73680 On ch=1 n=84 v=80
73680 On ch=1 n=76 v=80
73680 On ch=1 n=72 v=80
73788 Off ch=1 n=84 v=64
73788 Off ch=1 n=76 v=64
73788 Off ch=1 n=72 v=64
73800 On ch=1 n=84 v=80
73800 On ch=1 n=76 v=80
73800 On ch=1 n=72 v=80
73908 Off ch=1 n=84 v=64
73908 Off ch=1 n=76 v=64
73908 Off ch=1 n=72 v=64
73920 On ch=1 n=84 v=80
73920 On ch=1 n=76 v=80
73920 On ch=1 n=72 v=80
74136 Off ch=1 n=84 v=64
74136 Off ch=1 n=76 v=64
74136 Off ch=1 n=72 v=64
74160 On ch=1 n=81 v=80
74160 On ch=1 n=78 v=80
74160 On ch=1 n=72 v=80
74160 On ch=1 n=69 v=80
74376 Off ch=1 n=81 v=64
74376 Off ch=1 n=78 v=64
74376 Off ch=1 n=72 v=64
74376 Off ch=1 n=69 v=64
74400 On ch=1 n=83 v=80
74400 On ch=1 n=79 v=80
74400 On ch=1 n=76 v=80
74400 On ch=1 n=71 v=80
74616 Off ch=1 n=83 v=64
74616 Off ch=1 n=79 v=64
74616 Off ch=1 n=76 v=64
74616 Off ch=1 n=71 v=64
74640 On ch=1 n=79 v=80
74640 On ch=1 n=76 v=80
74640 On ch=1 n=71 v=80
74640 On ch=1 n=67 v=80
74748 Off ch=1 n=79 v=64
74748 Off ch=1 n=76 v=64
74748 Off ch=1 n=71 v=64
74748 Off ch=1 n=67 v=64
74760 On ch=1 n=79 v=80
74760 On ch=1 n=76 v=80
74760 On ch=1 n=71 v=80
74760 On ch=1 n=67 v=80
74868 Off ch=1 n=79 v=64
74868 Off ch=1 n=76 v=64
74868 Off ch=1 n=71 v=64
74868 Off ch=1 n=67 v=64
74880 On ch=1 n=79 v=80
74880 On ch=1 n=76 v=80
74880 On ch=1 n=71 v=80
74880 On ch=1 n=67 v=80
75096 Off ch=1 n=79 v=64
75096 Off ch=1 n=76 v=64
75096 Off ch=1 n=71 v=64
75096 Off ch=1 n=67 v=64
75120 On ch=1 n=81 v=80
75120 On ch=1 n=76 v=80
75120 On ch=1 n=72 v=80
75120 On ch=1 n=69 v=80
75228 Off ch=1 n=81 v=64
75228 Off ch=1 n=76 v=64
75228 Off ch=1 n=72 v=64
75228 Off ch=1 n=69 v=64
75240 On ch=1 n=81 v=80
75240 On ch=1 n=76 v=80
75240 On ch=1 n=72 v=80
75240 On ch=1 n=69 v=80
75348 Off ch=1 n=81 v=64
75348 Off ch=1 n=76 v=64
75348 Off ch=1 n=72 v=64
75348 Off ch=1 n=69 v=64
75360 On ch=1 n=81 v=80
75360 On ch=1 n=76 v=80
75360 On ch=1 n=72 v=80
75360 On ch=1 n=69 v=80
75576 Off ch=1 n=81 v=64
75576 Off ch=1 n=76 v=64
75576 Off ch=1 n=72 v=64
75576 Off ch=1 n=69 v=64
75600 On ch=1 n=83 v=80
75600 On ch=1 n=78 v=80
75600 On ch=1 n=75 v=80
75600 On ch=1 n=71 v=80
75816 Off ch=1 n=83 v=64
75816 Off ch=1 n=78 v=64
75816 Off ch=1 n=75 v=64
75816 Off ch=1 n=71 v=64
75840 On ch=1 n=88 v=80
75840 On ch=1 n=83 v=80
75840 On ch=1 n=79 v=80
75840 On ch=1 n=76 v=80
76056 Off ch=1 n=88 v=64
76056 Off ch=1 n=83 v=64
76056 Off ch=1 n=79 v=64
76056 Off ch=1 n=76 v=64
76080 On ch=1 n=83 v=80
76080 On ch=1 n=76 v=80
76080 On ch=1 n=71 v=80
76188 Off ch=1 n=83 v=64
76188 Off ch=1 n=76 v=64
76188 Off ch=1 n=71 v=64
76200 On ch=1 n=83 v=80
76200 On ch=1 n=76 v=80
76200 On ch=1 n=71 v=80
76308 Off ch=1 n=83 v=64
76308 Off ch=1 n=76 v=64
76308 Off ch=1 n=71 v=64
76320 On ch=1 n=83 v=80
76320 On ch=1 n=76 v=80
76320 On ch=1 n=71 v=80
76536 Off ch=1 n=83 v=64
76536 Off ch=1 n=76 v=64
76536 Off ch=1 n=71 v=64
76560 On ch=1 n=84 v=80
76560 On ch=1 n=76 v=80
76560 On ch=1 n=72 v=80
76668 Off ch=1 n=84 v=64
76668 Off ch=1 n=76 v=64
76668 Off ch=1 n=72 v=64
76680 On ch=1 n=84 v=80
76680 On ch=1 n=76 v=80
76680 On ch=1 n=72 v=80
76788 Off ch=1 n=84 v=64
76788 Off ch=1 n=76 v=64
76788 Off ch=1 n=72 v=64
76800 On ch=1 n=84 v=80
76800 On ch=1 n=76 v=80
76800 On ch=1 n=72 v=80
77016 Off ch=1 n=84 v=64
77016 Off ch=1 n=76 v=64
77016 Off ch=1 n=72 v=64
77040 On ch=1 n=81 v=80
77040 On ch=1 n=78 v=80
77040 On ch=1 n=72 v=80
77040 On ch=1 n=69 v=80
77256 Off ch=1 n=81 v=64
77256 Off ch=1 n=78 v=64
77256 Off ch=1 n=72 v=64
77256 Off ch=1 n=69 v=64
77280 On ch=1 n=83 v=80
77280 On ch=1 n=79 v=80
77280 On ch=1 n=76 v=80
77280 On ch=1 n=71 v=80
77496 Off ch=1 n=83 v=64
77496 Off ch=1 n=79 v=64
77496 Off ch=1 n=76 v=64
77496 Off ch=1 n=71 v=64
77520 On ch=1 n=79 v=80
77520 On ch=1 n=76 v=80
77520 On ch=1 n=71 v=80
77520 On ch=1 n=67 v=80
77628 Off ch=1 n=79 v=64
77628 Off ch=1 n=76 v=64
77628 Off ch=1 n=71 v=64
77628 Off ch=1 n=67 v=64
77640 On ch=1 n=79 v=80
77640 On ch=1 n=76 v=80
77640 On ch=1 n=71 v=80
77640 On ch=1 n=67 v=80
77748 Off ch=1 n=79 v=64
77748 Off ch=1 n=76 v=64
77748 Off ch=1 n=71 v=64
77748 Off ch=1 n=67 v=64
77760 On ch=1 n=79 v=80
77760 On ch=1 n=76 v=80
77760 On ch=1 n=71 v=80
77760 On ch=1 n=67 v=80
77976 Off ch=1 n=79 v=64
77976 Off ch=1 n=76 v=64
77976 Off ch=1 n=71 v=64
77976 Off ch=1 n=67 v=64
78000 On ch=1 n=81 v=80
78000 On ch=1 n=76 v=80
78000 On ch=1 n=72 v=80
78000 On ch=1 n=69 v=80
78108 Off ch=1 n=81 v=64
78108 Off ch=1 n=76 v=64
78108 Off ch=1 n=72 v=64
78108 Off ch=1 n=69 v=64
78120 On ch=1 n=81 v=80
78120 On ch=1 n=76 v=80
78120 On ch=1 n=72 v=80
78120 On ch=1 n=69 v=80
78228 Off ch=1 n=81 v=64
78228 Off ch=1 n=76 v=64
78228 Off ch=1 n=72 v=64
78228 Off ch=1 n=69 v=64
78240 On ch=1 n=81 v=80
78240 On ch=1 n=76 v=80
78240 On ch=1 n=72 v=80
78240 On ch=1 n=69 v=80
78456 Off ch=1 n=81 v=64
78456 Off ch=1 n=76 v=64
78456 Off ch=1 n=72 v=64
78456 Off ch=1 n=69 v=64
78480 On ch=1 n=78 v=80
78480 On ch=1 n=69 v=80
78480 On ch=1 n=66 v=80
78696 Off ch=1 n=78 v=64
78696 Off ch=1 n=69 v=64
78696 Off ch=1 n=66 v=64
78720 On ch=1 n=64 v=80
78720 On ch=1 n=76 v=80
78828 Off ch=1 n=64 v=64
78828 Off ch=1 n=76 v=64
78840 On ch=1 n=66 v=80
78948 Off ch=1 n=66 v=64
78960 On ch=1 n=67 v=80
79068 Off ch=1 n=67 v=64
79080 On ch=1 n=68 v=80
79188 Off ch=1 n=68 v=64
79200 On ch=1 n=69 v=80
79308 Off ch=1 n=69 v=64
79320 On ch=1 n=70 v=80
79428 Off ch=1 n=70 v=64
79440 On ch=1 n=71 v=80
79548 Off ch=1 n=71 v=64
79560 On ch=1 n=72 v=80
79668 Off ch=1 n=72 v=64
79680 On ch=1 n=71 v=80
79788 Off ch=1 n=71 v=64
79800 On ch=1 n=76 v=80
79908 Off ch=1 n=76 v=64
79920 On ch=1 n=75 v=80
80028 Off ch=1 n=75 v=64
80040 On ch=1 n=76 v=80
80148 Off ch=1 n=76 v=64
80160 On ch=1 n=79 v=80
80268 Off ch=1 n=79 v=64
80280 On ch=1 n=78 v=80
80388 Off ch=1 n=78 v=64
80400 On ch=1 n=76 v=80
80508 Off ch=1 n=76 v=64
80520 On ch=1 n=75 v=80
80628 Off ch=1 n=75 v=64
80640 On ch=1 n=88 v=80
80640 On ch=1 n=76 v=80
80748 Off ch=1 n=88 v=64
80748 Off ch=1 n=76 v=64
80760 On ch=1 n=78 v=80
80868 Off ch=1 n=78 v=64
80880 On ch=1 n=79 v=80
80988 Off ch=1 n=79 v=64
81000 On ch=1 n=80 v=80
81108 Off ch=1 n=80 v=64
81120 On ch=1 n=81 v=80
81228 Off ch=1 n=81 v=64
81240 On ch=1 n=82 v=80
81348 Off ch=1 n=82 v=64
81360 On ch=1 n=83 v=80
81468 Off ch=1 n=83 v=64
81480 On ch=1 n=84 v=80
81588 Off ch=1 n=84 v=64
81600 On ch=1 n=83 v=80
81708 Off ch=1 n=83 v=64
81720 On ch=1 n=88 v=80
81828 Off ch=1 n=88 v=64
81840 On ch=1 n=87 v=80
81948 Off ch=1 n=87 v=64
81960 On ch=1 n=88 v=80
82068 Off ch=1 n=88 v=64
82080 On ch=1 n=91 v=80
82080 On ch=1 n=83 v=80
82188 Off ch=1 n=91 v=64
82188 Off ch=1 n=83 v=64
82200 On ch=1 n=90 v=80
82200 On ch=1 n=81 v=80
82308 Off ch=1 n=90 v=64
82308 Off ch=1 n=81 v=64
82320 On ch=1 n=88 v=80
82320 On ch=1 n=79 v=80
82428 Off ch=1 n=88 v=64
82428 Off ch=1 n=79 v=64
82440 On ch=1 n=87 v=80
82440 On ch=1 n=78 v=80
82548 Off ch=1 n=87 v=64
82548 Off ch=1 n=78 v=64
82560 On ch=1 n=88 v=80
82560 On ch=1 n=79 v=80
82992 Off ch=1 n=88 v=64
82992 Off ch=1 n=79 v=64
83520 On ch=1 n=100 v=80
83952 Off ch=1 n=100 v=64
84480 Meta TrkEnd
TrkEnd
MTrk
0 Meta TrkName "Sound 2"
0 Meta InstrName "SB Live! Synth B [CF00]"
0 KeySig 1 major
0 PrCh ch=1 p=0
0 Par ch=1 c=10 v=64
1920 On ch=1 n=52 v=80
2136 Off ch=1 n=52 v=64
2160 On ch=1 n=60 v=80
2376 Off ch=1 n=60 v=64
2400 On ch=1 n=59 v=80
2616 Off ch=1 n=59 v=64
2640 On ch=1 n=55 v=80
2856 Off ch=1 n=55 v=64
2880 On ch=1 n=54 v=80
3096 Off ch=1 n=54 v=64
3120 On ch=1 n=52 v=80
3336 Off ch=1 n=52 v=64
3360 On ch=1 n=51 v=80
3576 Off ch=1 n=51 v=64
3600 On ch=1 n=52 v=80
3816 Off ch=1 n=52 v=64
3840 On ch=1 n=47 v=80
4056 Off ch=1 n=47 v=64
4080 On ch=1 n=57 v=80
4296 Off ch=1 n=57 v=64
4320 On ch=1 n=54 v=80
4536 Off ch=1 n=54 v=64
4560 On ch=1 n=52 v=80
4776 Off ch=1 n=52 v=64
4800 On ch=1 n=51 v=80
5232 Off ch=1 n=51 v=64
5280 On ch=1 n=54 v=80
5712 Off ch=1 n=54 v=64
5760 On ch=1 n=52 v=80
6192 Off ch=1 n=52 v=64
6240 On ch=1 n=55 v=80
6456 Off ch=1 n=55 v=64
6480 On ch=1 n=50 v=80
6696 Off ch=1 n=50 v=64
6720 On ch=1 n=49 v=80
7152 Off ch=1 n=49 v=64
7200 On ch=1 n=57 v=80
7632 Off ch=1 n=57 v=64
7680 On ch=1 n=50 v=80
8112 Off ch=1 n=50 v=64
8160 On ch=1 n=54 v=80
8376 Off ch=1 n=54 v=64
8400 On ch=1 n=48 v=80
8616 Off ch=1 n=48 v=64
8640 On ch=1 n=47 v=80
9072 Off ch=1 n=47 v=64
9120 On ch=1 n=55 v=80
9552 Off ch=1 n=55 v=64
9600 On ch=1 n=48 v=80
10032 Off ch=1 n=48 v=64
10080 On ch=1 n=52 v=80
10296 Off ch=1 n=52 v=64
10320 On ch=1 n=44 v=80
10536 Off ch=1 n=44 v=64
10560 On ch=1 n=45 v=80
10992 Off ch=1 n=45 v=64
11040 On ch=1 n=48 v=80
11472 Off ch=1 n=48 v=64
11520 On ch=1 n=50 v=80
11952 Off ch=1 n=50 v=64
12000 On ch=1 n=59 v=80
12216 Off ch=1 n=59 v=64
12240 On ch=1 n=55 v=80
12456 Off ch=1 n=55 v=64
12480 On ch=1 n=60 v=80
12912 Off ch=1 n=60 v=64
12960 On ch=1 n=51 v=80
13392 Off ch=1 n=51 v=64
13440 On ch=1 n=52 v=80
13656 Off ch=1 n=52 v=64
13680 On ch=1 n=60 v=80
13896 Off ch=1 n=60 v=64
13920 On ch=1 n=59 v=80
14136 Off ch=1 n=59 v=64
14160 On ch=1 n=55 v=80
14376 Off ch=1 n=55 v=64
14400 On ch=1 n=54 v=80
14616 Off ch=1 n=54 v=64
14640 On ch=1 n=52 v=80
14856 Off ch=1 n=52 v=64
14880 On ch=1 n=51 v=80
15096 Off ch=1 n=51 v=64
15120 On ch=1 n=52 v=80
15336 Off ch=1 n=52 v=64
15360 On ch=1 n=47 v=80
15576 Off ch=1 n=47 v=64
15600 On ch=1 n=57 v=80
15816 Off ch=1 n=57 v=64
15840 On ch=1 n=54 v=80
16056 Off ch=1 n=54 v=64
16080 On ch=1 n=52 v=80
16296 Off ch=1 n=52 v=64
16320 On ch=1 n=51 v=80
16752 Off ch=1 n=51 v=64
16800 On ch=1 n=54 v=80
17232 Off ch=1 n=54 v=64
17280 On ch=1 n=52 v=80
17712 Off ch=1 n=52 v=64
17760 On ch=1 n=55 v=80
17976 Off ch=1 n=55 v=64
18000 On ch=1 n=50 v=80
18216 Off ch=1 n=50 v=64
18240 On ch=1 n=49 v=80
18672 Off ch=1 n=49 v=64
18720 On ch=1 n=57 v=80
19152 Off ch=1 n=57 v=64
19200 On ch=1 n=50 v=80
19632 Off ch=1 n=50 v=64
19680 On ch=1 n=54 v=80
19896 Off ch=1 n=54 v=64
19920 On ch=1 n=48 v=80
20136 Off ch=1 n=48 v=64
20160 On ch=1 n=47 v=80
20592 Off ch=1 n=47 v=64
20640 On ch=1 n=55 v=80
21072 Off ch=1 n=55 v=64
21120 On ch=1 n=48 v=80
21552 Off ch=1 n=48 v=64
21600 On ch=1 n=52 v=80
21816 Off ch=1 n=52 v=64
21840 On ch=1 n=44 v=80
22056 Off ch=1 n=44 v=64
22080 On ch=1 n=45 v=80
22512 Off ch=1 n=45 v=64
22560 On ch=1 n=48 v=80
22992 Off ch=1 n=48 v=64
23040 On ch=1 n=50 v=80
23472 Off ch=1 n=50 v=64
23520 On ch=1 n=59 v=80
23736 Off ch=1 n=59 v=64
23760 On ch=1 n=55 v=80
23976 Off ch=1 n=55 v=64
24000 On ch=1 n=60 v=80
24432 Off ch=1 n=60 v=64
24480 On ch=1 n=51 v=80
24912 Off ch=1 n=51 v=64
24960 On ch=1 n=52 v=80
25176 Off ch=1 n=52 v=64
25200 On ch=1 n=59 v=80
25416 Off ch=1 n=59 v=64
25440 On ch=1 n=55 v=80
25656 Off ch=1 n=55 v=64
25680 On ch=1 n=59 v=80
25896 Off ch=1 n=59 v=64
25920 On ch=1 n=49 v=80
26136 Off ch=1 n=49 v=64
26160 On ch=1 n=57 v=80
26376 Off ch=1 n=57 v=64
26400 On ch=1 n=52 v=80
26616 Off ch=1 n=52 v=64
26640 On ch=1 n=57 v=80
26856 Off ch=1 n=57 v=64
26880 On ch=1 n=50 v=80
27096 Off ch=1 n=50 v=64
27120 On ch=1 n=59 v=80
27336 Off ch=1 n=59 v=64
27360 On ch=1 n=55 v=80
27576 Off ch=1 n=55 v=64
27600 On ch=1 n=59 v=80
27816 Off ch=1 n=59 v=64
27840 On ch=1 n=50 v=80
28056 Off ch=1 n=50 v=64
28080 On ch=1 n=60 v=80
28296 Off ch=1 n=60 v=64
28320 On ch=1 n=57 v=80
28536 Off ch=1 n=57 v=64
28560 On ch=1 n=60 v=80
28776 Off ch=1 n=60 v=64
28800 On ch=1 n=52 v=80
29016 Off ch=1 n=52 v=64
29040 On ch=1 n=59 v=80
29256 Off ch=1 n=59 v=64
29280 On ch=1 n=55 v=80
29496 Off ch=1 n=55 v=64
29520 On ch=1 n=59 v=80
29736 Off ch=1 n=59 v=64
29760 On ch=1 n=49 v=80
29976 Off ch=1 n=49 v=64
30000 On ch=1 n=57 v=80
30216 Off ch=1 n=57 v=64
30240 On ch=1 n=52 v=80
30456 Off ch=1 n=52 v=64
30480 On ch=1 n=57 v=80
30696 Off ch=1 n=57 v=64
30720 On ch=1 n=50 v=80
30936 Off ch=1 n=50 v=64
30960 On ch=1 n=59 v=80
31176 Off ch=1 n=59 v=64
31200 On ch=1 n=55 v=80
31416 Off ch=1 n=55 v=64
31440 On ch=1 n=59 v=80
31656 Off ch=1 n=59 v=64
31680 On ch=1 n=50 v=80
31896 Off ch=1 n=50 v=64
31920 On ch=1 n=60 v=80
32136 Off ch=1 n=60 v=64
32160 On ch=1 n=57 v=80
32376 Off ch=1 n=57 v=64
32400 On ch=1 n=60 v=80
32616 Off ch=1 n=60 v=64
32640 On ch=1 n=55 v=80
33072 Off ch=1 n=55 v=64
33120 On ch=1 n=50 v=80
33336 Off ch=1 n=50 v=64
33360 On ch=1 n=48 v=80
33576 Off ch=1 n=48 v=64
33600 On ch=1 n=50 v=80
34032 Off ch=1 n=50 v=64
34080 On ch=1 n=51 v=80
34080 On ch=1 n=39 v=80
34512 Off ch=1 n=51 v=64
34512 Off ch=1 n=39 v=64
34560 On ch=1 n=55 v=80
34560 On ch=1 n=67 v=80
34560 On ch=1 n=52 v=80
34560 On ch=1 n=40 v=80
34668 Off ch=1 n=55 v=64
34668 Off ch=1 n=67 v=64
34680 On ch=1 n=54 v=80
34788 Off ch=1 n=54 v=64
34800 On ch=1 n=55 v=80
34908 Off ch=1 n=55 v=64
34920 On ch=1 n=57 v=80
34992 Off ch=1 n=52 v=64
34992 Off ch=1 n=40 v=64
35028 Off ch=1 n=57 v=64
35040 On ch=1 n=55 v=80
35148 Off ch=1 n=55 v=64
35160 On ch=1 n=54 v=80
35268 Off ch=1 n=54 v=64
35280 On ch=1 n=55 v=80
35388 Off ch=1 n=55 v=64
35400 On ch=1 n=57 v=80
35508 Off ch=1 n=57 v=64
35520 On ch=1 n=55 v=80
35520 On ch=1 n=50 v=80
35520 On ch=1 n=38 v=80
35628 Off ch=1 n=55 v=64
35640 On ch=1 n=54 v=80
35748 Off ch=1 n=54 v=64
35760 On ch=1 n=55 v=80
35868 Off ch=1 n=55 v=64
35880 On ch=1 n=57 v=80
35952 Off ch=1 n=50 v=64
35952 Off ch=1 n=38 v=64
35988 Off ch=1 n=57 v=64
36000 On ch=1 n=55 v=80
36108 Off ch=1 n=55 v=64
36120 On ch=1 n=54 v=80
36228 Off ch=1 n=54 v=64
36240 On ch=1 n=55 v=80
36348 Off ch=1 n=55 v=64
36360 On ch=1 n=57 v=80
36468 Off ch=1 n=57 v=64
36480 On ch=1 n=55 v=80
36480 On ch=1 n=48 v=80
36480 On ch=1 n=36 v=80
36588 Off ch=1 n=55 v=64
36600 On ch=1 n=54 v=80
36708 Off ch=1 n=54 v=64
36720 On ch=1 n=55 v=80
36828 Off ch=1 n=55 v=64
36840 On ch=1 n=57 v=80
36912 Off ch=1 n=48 v=64
36912 Off ch=1 n=36 v=64
36948 Off ch=1 n=57 v=64
36960 On ch=1 n=55 v=80
37068 Off ch=1 n=55 v=64
37080 On ch=1 n=54 v=80
37188 Off ch=1 n=54 v=64
37200 On ch=1 n=55 v=80
37308 Off ch=1 n=55 v=64
37320 On ch=1 n=57 v=80
37428 Off ch=1 n=57 v=64
37440 On ch=1 n=55 v=80
37440 On ch=1 n=47 v=80
37440 On ch=1 n=35 v=80
37548 Off ch=1 n=55 v=64
37560 On ch=1 n=54 v=80
37668 Off ch=1 n=54 v=64
37680 On ch=1 n=55 v=80
37788 Off ch=1 n=55 v=64
37800 On ch=1 n=57 v=80
37872 Off ch=1 n=47 v=64
37872 Off ch=1 n=35 v=64
37908 Off ch=1 n=57 v=64
37920 On ch=1 n=59 v=80
38028 Off ch=1 n=59 v=64
38040 On ch=1 n=57 v=80
38148 Off ch=1 n=57 v=64
38160 On ch=1 n=55 v=80
38268 Off ch=1 n=55 v=64
38280 On ch=1 n=54 v=80
38388 Off ch=1 n=54 v=64
38400 On ch=1 n=55 v=80
38400 On ch=1 n=40 v=80
38400 On ch=1 n=52 v=80
38508 Off ch=1 n=55 v=64
38520 On ch=1 n=54 v=80
38628 Off ch=1 n=54 v=64
38640 On ch=1 n=55 v=80
38748 Off ch=1 n=55 v=64
38760 On ch=1 n=57 v=80
38832 Off ch=1 n=40 v=64
38832 Off ch=1 n=52 v=64
38868 Off ch=1 n=57 v=64
38880 On ch=1 n=55 v=80
38988 Off ch=1 n=55 v=64
39000 On ch=1 n=54 v=80
39108 Off ch=1 n=54 v=64
39120 On ch=1 n=55 v=80
39228 Off ch=1 n=55 v=64
39240 On ch=1 n=57 v=80
39348 Off ch=1 n=57 v=64
39360 On ch=1 n=55 v=80
39360 On ch=1 n=38 v=80
39360 On ch=1 n=50 v=80
39468 Off ch=1 n=55 v=64
39480 On ch=1 n=54 v=80
39588 Off ch=1 n=54 v=64
39600 On ch=1 n=55 v=80
39708 Off ch=1 n=55 v=64
39720 On ch=1 n=57 v=80
39792 Off ch=1 n=38 v=64
39792 Off ch=1 n=50 v=64
39828 Off ch=1 n=57 v=64
39840 On ch=1 n=55 v=80
39948 Off ch=1 n=55 v=64
39960 On ch=1 n=54 v=80
40068 Off ch=1 n=54 v=64
40080 On ch=1 n=55 v=80
40188 Off ch=1 n=55 v=64
40200 On ch=1 n=57 v=80
40308 Off ch=1 n=57 v=64
40320 On ch=1 n=55 v=80
40320 On ch=1 n=36 v=80
40320 On ch=1 n=48 v=80
40428 Off ch=1 n=55 v=64
40440 On ch=1 n=54 v=80
40548 Off ch=1 n=54 v=64
40560 On ch=1 n=55 v=80
40668 Off ch=1 n=55 v=64
40680 On ch=1 n=57 v=80
40752 Off ch=1 n=36 v=64
40752 Off ch=1 n=48 v=64
40788 Off ch=1 n=57 v=64
40800 On ch=1 n=55 v=80
40908 Off ch=1 n=55 v=64
40920 On ch=1 n=54 v=80
41028 Off ch=1 n=54 v=64
41040 On ch=1 n=55 v=80
41148 Off ch=1 n=55 v=64
41160 On ch=1 n=57 v=80
41268 Off ch=1 n=57 v=64
41280 On ch=1 n=55 v=80
41280 On ch=1 n=35 v=80
41280 On ch=1 n=47 v=80
41388 Off ch=1 n=55 v=64
41400 On ch=1 n=54 v=80
41508 Off ch=1 n=54 v=64
41520 On ch=1 n=55 v=80
41628 Off ch=1 n=55 v=64
41640 On ch=1 n=57 v=80
41712 Off ch=1 n=35 v=64
41712 Off ch=1 n=47 v=64
41748 Off ch=1 n=57 v=64
41760 On ch=1 n=59 v=80
41868 Off ch=1 n=59 v=64
41880 On ch=1 n=57 v=80
41988 Off ch=1 n=57 v=64
42000 On ch=1 n=60 v=80
42108 Off ch=1 n=60 v=64
42120 On ch=1 n=59 v=80
42228 Off ch=1 n=59 v=64
42240 On ch=1 n=52 v=80
42240 On ch=1 n=40 v=80
42672 Off ch=1 n=52 v=64
42672 Off ch=1 n=40 v=64
42720 On ch=1 n=64 v=80
42720 On ch=1 n=59 v=80
42720 On ch=1 n=55 v=80
43152 Off ch=1 n=64 v=64
43152 Off ch=1 n=59 v=64
43152 Off ch=1 n=55 v=64
43200 On ch=1 n=38 v=80
43200 On ch=1 n=50 v=80
43632 Off ch=1 n=38 v=64
43632 Off ch=1 n=50 v=64
43680 On ch=1 n=64 v=80
43680 On ch=1 n=59 v=80
43680 On ch=1 n=55 v=80
44112 Off ch=1 n=64 v=64
44112 Off ch=1 n=59 v=64
44112 Off ch=1 n=55 v=64
44160 On ch=1 n=36 v=80
44160 On ch=1 n=48 v=80
44592 Off ch=1 n=36 v=64
44592 Off ch=1 n=48 v=64
44640 On ch=1 n=64 v=80
44640 On ch=1 n=60 v=80
44640 On ch=1 n=57 v=80
45072 Off ch=1 n=64 v=64
45072 Off ch=1 n=60 v=64
45072 Off ch=1 n=57 v=64
45120 On ch=1 n=35 v=80
45120 On ch=1 n=47 v=80
45552 Off ch=1 n=35 v=64
45552 Off ch=1 n=47 v=64
45600 On ch=1 n=60 v=80
45600 On ch=1 n=54 v=80
45600 On ch=1 n=51 v=80
46032 Off ch=1 n=60 v=64
46032 Off ch=1 n=54 v=64
46032 Off ch=1 n=51 v=64
46080 On ch=1 n=52 v=80
46080 On ch=1 n=40 v=80
46512 Off ch=1 n=52 v=64
46512 Off ch=1 n=40 v=64
46560 On ch=1 n=64 v=80
46560 On ch=1 n=59 v=80
46560 On ch=1 n=55 v=80
46992 Off ch=1 n=64 v=64
46992 Off ch=1 n=59 v=64
46992 Off ch=1 n=55 v=64
47040 On ch=1 n=38 v=80
47040 On ch=1 n=50 v=80
47472 Off ch=1 n=38 v=64
47472 Off ch=1 n=50 v=64
47520 On ch=1 n=64 v=80
47520 On ch=1 n=59 v=80
47520 On ch=1 n=55 v=80
47952 Off ch=1 n=64 v=64
47952 Off ch=1 n=59 v=64
47952 Off ch=1 n=55 v=64
48000 On ch=1 n=36 v=80
48000 On ch=1 n=48 v=80
48432 Off ch=1 n=36 v=64
48432 Off ch=1 n=48 v=64
48480 On ch=1 n=64 v=80
48480 On ch=1 n=60 v=80
48480 On ch=1 n=57 v=80
48912 Off ch=1 n=64 v=64
48912 Off ch=1 n=60 v=64
48912 Off ch=1 n=57 v=64
48960 On ch=1 n=35 v=80
48960 On ch=1 n=47 v=80
49392 Off ch=1 n=35 v=64
49392 Off ch=1 n=47 v=64
49440 On ch=1 n=60 v=80
49440 On ch=1 n=54 v=80
49440 On ch=1 n=51 v=80
49872 Off ch=1 n=60 v=64
49872 Off ch=1 n=54 v=64
49872 Off ch=1 n=51 v=64
49920 On ch=1 n=52 v=80
49920 On ch=1 n=40 v=80
50352 Off ch=1 n=52 v=64
50352 Off ch=1 n=40 v=64
50400 On ch=1 n=64 v=80
50400 On ch=1 n=59 v=80
50400 On ch=1 n=55 v=80
50832 Off ch=1 n=64 v=64
50832 Off ch=1 n=59 v=64
50832 Off ch=1 n=55 v=64
50880 On ch=1 n=38 v=80
50880 On ch=1 n=50 v=80
51312 Off ch=1 n=38 v=64
51312 Off ch=1 n=50 v=64
51360 On ch=1 n=64 v=80
51360 On ch=1 n=59 v=80
51360 On ch=1 n=55 v=80
51792 Off ch=1 n=64 v=64
51792 Off ch=1 n=59 v=64
51792 Off ch=1 n=55 v=64
51840 On ch=1 n=36 v=80
51840 On ch=1 n=48 v=80
52272 Off ch=1 n=36 v=64
52272 Off ch=1 n=48 v=64
52320 On ch=1 n=64 v=80
52320 On ch=1 n=60 v=80
52320 On ch=1 n=57 v=80
52752 Off ch=1 n=64 v=64
52752 Off ch=1 n=60 v=64
52752 Off ch=1 n=57 v=64
52800 On ch=1 n=35 v=80
52800 On ch=1 n=47 v=80
53232 Off ch=1 n=35 v=64
53232 Off ch=1 n=47 v=64
53280 On ch=1 n=60 v=80
53280 On ch=1 n=54 v=80
53280 On ch=1 n=51 v=80
53712 Off ch=1 n=60 v=64
53712 Off ch=1 n=54 v=64
53712 Off ch=1 n=51 v=64
53760 On ch=1 n=52 v=80
53760 On ch=1 n=40 v=80
54192 Off ch=1 n=52 v=64
54192 Off ch=1 n=40 v=64
54240 On ch=1 n=64 v=80
54240 On ch=1 n=59 v=80
54240 On ch=1 n=55 v=80
54672 Off ch=1 n=64 v=64
54672 Off ch=1 n=59 v=64
54672 Off ch=1 n=55 v=64
54720 On ch=1 n=38 v=80
54720 On ch=1 n=50 v=80
55152 Off ch=1 n=38 v=64
55152 Off ch=1 n=50 v=64
55200 On ch=1 n=64 v=80
55200 On ch=1 n=59 v=80
55200 On ch=1 n=55 v=80
55632 Off ch=1 n=64 v=64
55632 Off ch=1 n=59 v=64
55632 Off ch=1 n=55 v=64
55680 On ch=1 n=36 v=80
55680 On ch=1 n=48 v=80
56112 Off ch=1 n=36 v=64
56112 Off ch=1 n=48 v=64
56160 On ch=1 n=60 v=80
56160 On ch=1 n=57 v=80
56592 Off ch=1 n=60 v=64
56592 Off ch=1 n=57 v=64
56640 On ch=1 n=35 v=80
56640 On ch=1 n=47 v=80
57072 Off ch=1 n=35 v=64
57072 Off ch=1 n=47 v=64
57120 On ch=1 n=60 v=80
57120 On ch=1 n=54 v=80
57120 On ch=1 n=51 v=80
57552 Off ch=1 n=60 v=64
57552 Off ch=1 n=54 v=64
57552 Off ch=1 n=51 v=64
57600 On ch=1 n=55 v=80
57600 On ch=1 n=67 v=80
57600 On ch=1 n=40 v=80
57600 On ch=1 n=52 v=80
57708 Off ch=1 n=55 v=64
57708 Off ch=1 n=67 v=64
57720 On ch=1 n=54 v=80
57828 Off ch=1 n=54 v=64
57840 On ch=1 n=55 v=80
57948 Off ch=1 n=55 v=64
57960 On ch=1 n=57 v=80
58032 Off ch=1 n=40 v=64
58032 Off ch=1 n=52 v=64
58068 Off ch=1 n=57 v=64
58080 On ch=1 n=55 v=80
58188 Off ch=1 n=55 v=64
58200 On ch=1 n=54 v=80
58308 Off ch=1 n=54 v=64
58320 On ch=1 n=55 v=80
58428 Off ch=1 n=55 v=64
58440 On ch=1 n=57 v=80
58548 Off ch=1 n=57 v=64
58560 On ch=1 n=55 v=80
58560 On ch=1 n=38 v=80
58560 On ch=1 n=50 v=80
58668 Off ch=1 n=55 v=64
58680 On ch=1 n=54 v=80
58788 Off ch=1 n=54 v=64
58800 On ch=1 n=55 v=80
58908 Off ch=1 n=55 v=64
58920 On ch=1 n=57 v=80
58992 Off ch=1 n=38 v=64
58992 Off ch=1 n=50 v=64
59028 Off ch=1 n=57 v=64
59040 On ch=1 n=55 v=80
59148 Off ch=1 n=55 v=64
59160 On ch=1 n=54 v=80
59268 Off ch=1 n=54 v=64
59280 On ch=1 n=55 v=80
59388 Off ch=1 n=55 v=64
59400 On ch=1 n=57 v=80
59508 Off ch=1 n=57 v=64
59520 On ch=1 n=55 v=80
59520 On ch=1 n=36 v=80
59520 On ch=1 n=48 v=80
59628 Off ch=1 n=55 v=64
59640 On ch=1 n=54 v=80
59748 Off ch=1 n=54 v=64
59760 On ch=1 n=55 v=80
59868 Off ch=1 n=55 v=64
59880 On ch=1 n=57 v=80
59952 Off ch=1 n=36 v=64
59952 Off ch=1 n=48 v=64
59988 Off ch=1 n=57 v=64
60000 On ch=1 n=55 v=80
60108 Off ch=1 n=55 v=64
60120 On ch=1 n=54 v=80
60228 Off ch=1 n=54 v=64
60240 On ch=1 n=55 v=80
60348 Off ch=1 n=55 v=64
60360 On ch=1 n=57 v=80
60468 Off ch=1 n=57 v=64
60480 On ch=1 n=55 v=80
60480 On ch=1 n=35 v=80
60480 On ch=1 n=47 v=80
60588 Off ch=1 n=55 v=64
60600 On ch=1 n=54 v=80
60708 Off ch=1 n=54 v=64
60720 On ch=1 n=55 v=80
60828 Off ch=1 n=55 v=64
60840 On ch=1 n=57 v=80
60912 Off ch=1 n=35 v=64
60912 Off ch=1 n=47 v=64
60948 Off ch=1 n=57 v=64
60960 On ch=1 n=59 v=80
61068 Off ch=1 n=59 v=64
61080 On ch=1 n=57 v=80
61188 Off ch=1 n=57 v=64
61200 On ch=1 n=55 v=80
61308 Off ch=1 n=55 v=64
61320 On ch=1 n=54 v=80
61428 Off ch=1 n=54 v=64
61440 On ch=1 n=55 v=80
61440 On ch=1 n=40 v=80
61440 On ch=1 n=52 v=80
61548 Off ch=1 n=55 v=64
61560 On ch=1 n=54 v=80
61668 Off ch=1 n=54 v=64
61680 On ch=1 n=55 v=80
61788 Off ch=1 n=55 v=64
61800 On ch=1 n=57 v=80
61872 Off ch=1 n=40 v=64
61872 Off ch=1 n=52 v=64
61908 Off ch=1 n=57 v=64
61920 On ch=1 n=55 v=80
62028 Off ch=1 n=55 v=64
62040 On ch=1 n=54 v=80
62148 Off ch=1 n=54 v=64
62160 On ch=1 n=55 v=80
62268 Off ch=1 n=55 v=64
62280 On ch=1 n=57 v=80
62388 Off ch=1 n=57 v=64
62400 On ch=1 n=55 v=80
62400 On ch=1 n=38 v=80
62400 On ch=1 n=50 v=80
62508 Off ch=1 n=55 v=64
62520 On ch=1 n=54 v=80
62628 Off ch=1 n=54 v=64
62640 On ch=1 n=55 v=80
62748 Off ch=1 n=55 v=64
62760 On ch=1 n=57 v=80
62832 Off ch=1 n=38 v=64
62832 Off ch=1 n=50 v=64
62868 Off ch=1 n=57 v=64
62880 On ch=1 n=55 v=80
62988 Off ch=1 n=55 v=64
63000 On ch=1 n=54 v=80
63108 Off ch=1 n=54 v=64
63120 On ch=1 n=55 v=80
63228 Off ch=1 n=55 v=64
63240 On ch=1 n=57 v=80
63348 Off ch=1 n=57 v=64
63360 On ch=1 n=55 v=80
63360 On ch=1 n=36 v=80
63360 On ch=1 n=48 v=80
63468 Off ch=1 n=55 v=64
63480 On ch=1 n=54 v=80
63588 Off ch=1 n=54 v=64
63600 On ch=1 n=55 v=80
63708 Off ch=1 n=55 v=64
63720 On ch=1 n=57 v=80
63792 Off ch=1 n=36 v=64
63792 Off ch=1 n=48 v=64
63828 Off ch=1 n=57 v=64
63840 On ch=1 n=55 v=80
63948 Off ch=1 n=55 v=64
63960 On ch=1 n=54 v=80
64068 Off ch=1 n=54 v=64
64080 On ch=1 n=55 v=80
64188 Off ch=1 n=55 v=64
64200 On ch=1 n=57 v=80
64308 Off ch=1 n=57 v=64
64320 On ch=1 n=55 v=80
64320 On ch=1 n=35 v=80
64320 On ch=1 n=47 v=80
64428 Off ch=1 n=55 v=64
64440 On ch=1 n=54 v=80
64548 Off ch=1 n=54 v=64
64560 On ch=1 n=55 v=80
64668 Off ch=1 n=55 v=64
64680 On ch=1 n=57 v=80
64752 Off ch=1 n=35 v=64
64752 Off ch=1 n=47 v=64
64788 Off ch=1 n=57 v=64
64800 On ch=1 n=59 v=80
64908 Off ch=1 n=59 v=64
64920 On ch=1 n=57 v=80
65028 Off ch=1 n=57 v=64
65040 On ch=1 n=60 v=80
65148 Off ch=1 n=60 v=64
65160 On ch=1 n=59 v=80
65268 Off ch=1 n=59 v=64
65280 On ch=1 n=52 v=80
65280 On ch=1 n=40 v=80
65712 Off ch=1 n=52 v=64
65712 Off ch=1 n=40 v=64
65760 On ch=1 n=64 v=80
65760 On ch=1 n=59 v=80
65760 On ch=1 n=55 v=80
66192 Off ch=1 n=64 v=64
66192 Off ch=1 n=59 v=64
66192 Off ch=1 n=55 v=64
66240 On ch=1 n=38 v=80
66240 On ch=1 n=50 v=80
66672 Off ch=1 n=38 v=64
66672 Off ch=1 n=50 v=64
66720 On ch=1 n=64 v=80
66720 On ch=1 n=59 v=80
66720 On ch=1 n=55 v=80
67152 Off ch=1 n=64 v=64
67152 Off ch=1 n=59 v=64
67152 Off ch=1 n=55 v=64
67200 On ch=1 n=36 v=80
67200 On ch=1 n=48 v=80
67632 Off ch=1 n=36 v=64
67632 Off ch=1 n=48 v=64
67680 On ch=1 n=64 v=80
67680 On ch=1 n=60 v=80
67680 On ch=1 n=57 v=80
68112 Off ch=1 n=64 v=64
68112 Off ch=1 n=60 v=64
68112 Off ch=1 n=57 v=64
68160 On ch=1 n=35 v=80
68160 On ch=1 n=47 v=80
68592 Off ch=1 n=35 v=64
68592 Off ch=1 n=47 v=64
68640 On ch=1 n=60 v=80
68640 On ch=1 n=54 v=80
68640 On ch=1 n=51 v=80
69072 Off ch=1 n=60 v=64
69072 Off ch=1 n=54 v=64
69072 Off ch=1 n=51 v=64
69120 On ch=1 n=52 v=80
69120 On ch=1 n=40 v=80
69552 Off ch=1 n=52 v=64
69552 Off ch=1 n=40 v=64
69600 On ch=1 n=64 v=80
69600 On ch=1 n=59 v=80
69600 On ch=1 n=55 v=80
70032 Off ch=1 n=64 v=64
70032 Off ch=1 n=59 v=64
70032 Off ch=1 n=55 v=64
70080 On ch=1 n=38 v=80
70080 On ch=1 n=50 v=80
70512 Off ch=1 n=38 v=64
70512 Off ch=1 n=50 v=64
70560 On ch=1 n=64 v=80
70560 On ch=1 n=59 v=80
70560 On ch=1 n=55 v=80
70992 Off ch=1 n=64 v=64
70992 Off ch=1 n=59 v=64
70992 Off ch=1 n=55 v=64
71040 On ch=1 n=36 v=80
71040 On ch=1 n=48 v=80
71472 Off ch=1 n=36 v=64
71472 Off ch=1 n=48 v=64
71520 On ch=1 n=64 v=80
71520 On ch=1 n=60 v=80
71520 On ch=1 n=57 v=80
71952 Off ch=1 n=64 v=64
71952 Off ch=1 n=60 v=64
71952 Off ch=1 n=57 v=64
72000 On ch=1 n=35 v=80
72000 On ch=1 n=47 v=80
72432 Off ch=1 n=35 v=64
72432 Off ch=1 n=47 v=64
72480 On ch=1 n=60 v=80
72480 On ch=1 n=54 v=80
72480 On ch=1 n=51 v=80
72912 Off ch=1 n=60 v=64
72912 Off ch=1 n=54 v=64
72912 Off ch=1 n=51 v=64
72960 On ch=1 n=40 v=80
72960 On ch=1 n=28 v=80
73176 Off ch=1 n=40 v=64
73176 Off ch=1 n=28 v=64
73200 On ch=1 n=64 v=80
73200 On ch=1 n=59 v=80
73200 On ch=1 n=55 v=80
73308 Off ch=1 n=64 v=64
73308 Off ch=1 n=59 v=64
73308 Off ch=1 n=55 v=64
73320 On ch=1 n=64 v=80
73320 On ch=1 n=59 v=80
73320 On ch=1 n=55 v=80
73428 Off ch=1 n=64 v=64
73428 Off ch=1 n=59 v=64
73428 Off ch=1 n=55 v=64
73440 On ch=1 n=64 v=80
73440 On ch=1 n=59 v=80
73440 On ch=1 n=55 v=80
73656 Off ch=1 n=64 v=64
73656 Off ch=1 n=59 v=64
73656 Off ch=1 n=55 v=64
73680 On ch=1 n=64 v=80
73680 On ch=1 n=60 v=80
73680 On ch=1 n=57 v=80
73788 Off ch=1 n=64 v=64
73788 Off ch=1 n=60 v=64
73788 Off ch=1 n=57 v=64
73800 On ch=1 n=64 v=80
73800 On ch=1 n=60 v=80
73800 On ch=1 n=57 v=80
73908 Off ch=1 n=64 v=64
73908 Off ch=1 n=60 v=64
73908 Off ch=1 n=57 v=64
73920 On ch=1 n=57 v=80
73920 On ch=1 n=60 v=80
73920 On ch=1 n=64 v=80
74136 Off ch=1 n=57 v=64
74136 Off ch=1 n=60 v=64
74136 Off ch=1 n=64 v=64
74160 On ch=1 n=27 v=80
74160 On ch=1 n=39 v=80
74376 Off ch=1 n=27 v=64
74376 Off ch=1 n=39 v=64
74400 On ch=1 n=40 v=80
74400 On ch=1 n=28 v=80
74616 Off ch=1 n=40 v=64
74616 Off ch=1 n=28 v=64
74640 On ch=1 n=59 v=80
74640 On ch=1 n=55 v=80
74640 On ch=1 n=52 v=80
74748 Off ch=1 n=59 v=64
74748 Off ch=1 n=55 v=64
74748 Off ch=1 n=52 v=64
74760 On ch=1 n=59 v=80
74760 On ch=1 n=55 v=80
74760 On ch=1 n=52 v=80
74868 Off ch=1 n=59 v=64
74868 Off ch=1 n=55 v=64
74868 Off ch=1 n=52 v=64
74880 On ch=1 n=59 v=80
74880 On ch=1 n=55 v=80
74880 On ch=1 n=52 v=80
75096 Off ch=1 n=59 v=64
75096 Off ch=1 n=55 v=64
75096 Off ch=1 n=52 v=64
75120 On ch=1 n=60 v=80
75120 On ch=1 n=57 v=80
75120 On ch=1 n=52 v=80
75228 Off ch=1 n=60 v=64
75228 Off ch=1 n=57 v=64
75228 Off ch=1 n=52 v=64
75240 On ch=1 n=60 v=80
75240 On ch=1 n=57 v=80
75240 On ch=1 n=52 v=80
75348 Off ch=1 n=60 v=64
75348 Off ch=1 n=57 v=64
75348 Off ch=1 n=52 v=64
75360 On ch=1 n=52 v=80
75360 On ch=1 n=57 v=80
75360 On ch=1 n=60 v=80
75576 Off ch=1 n=52 v=64
75576 Off ch=1 n=57 v=64
75576 Off ch=1 n=60 v=64
75600 On ch=1 n=35 v=80
75600 On ch=1 n=47 v=80
75816 Off ch=1 n=35 v=64
75816 Off ch=1 n=47 v=64
75840 On ch=1 n=40 v=80
75840 On ch=1 n=28 v=80
76056 Off ch=1 n=40 v=64
76056 Off ch=1 n=28 v=64
76080 On ch=1 n=64 v=80
76080 On ch=1 n=59 v=80
76080 On ch=1 n=55 v=80
76188 Off ch=1 n=64 v=64
76188 Off ch=1 n=59 v=64
76188 Off ch=1 n=55 v=64
76200 On ch=1 n=64 v=80
76200 On ch=1 n=59 v=80
76200 On ch=1 n=55 v=80
76308 Off ch=1 n=64 v=64
76308 Off ch=1 n=59 v=64
76308 Off ch=1 n=55 v=64
76320 On ch=1 n=64 v=80
76320 On ch=1 n=59 v=80
76320 On ch=1 n=55 v=80
76536 Off ch=1 n=64 v=64
76536 Off ch=1 n=59 v=64
76536 Off ch=1 n=55 v=64
76560 On ch=1 n=64 v=80
76560 On ch=1 n=60 v=80
76560 On ch=1 n=57 v=80
76668 Off ch=1 n=64 v=64
76668 Off ch=1 n=60 v=64
76668 Off ch=1 n=57 v=64
76680 On ch=1 n=64 v=80
76680 On ch=1 n=60 v=80
76680 On ch=1 n=57 v=80
76788 Off ch=1 n=64 v=64
76788 Off ch=1 n=60 v=64
76788 Off ch=1 n=57 v=64
76800 On ch=1 n=57 v=80
76800 On ch=1 n=60 v=80
76800 On ch=1 n=64 v=80
77016 Off ch=1 n=57 v=64
77016 Off ch=1 n=60 v=64
77016 Off ch=1 n=64 v=64
77040 On ch=1 n=27 v=80
77040 On ch=1 n=39 v=80
77256 Off ch=1 n=27 v=64
77256 Off ch=1 n=39 v=64
77280 On ch=1 n=40 v=80
77280 On ch=1 n=28 v=80
77496 Off ch=1 n=40 v=64
77496 Off ch=1 n=28 v=64
77520 On ch=1 n=59 v=80
77520 On ch=1 n=55 v=80
77520 On ch=1 n=52 v=80
77628 Off ch=1 n=59 v=64
77628 Off ch=1 n=55 v=64
77628 Off ch=1 n=52 v=64
77640 On ch=1 n=59 v=80
77640 On ch=1 n=55 v=80
77640 On ch=1 n=52 v=80
77748 Off ch=1 n=59 v=64
77748 Off ch=1 n=55 v=64
77748 Off ch=1 n=52 v=64
77760 On ch=1 n=59 v=80
77760 On ch=1 n=55 v=80
77760 On ch=1 n=52 v=80
77976 Off ch=1 n=59 v=64
77976 Off ch=1 n=55 v=64
77976 Off ch=1 n=52 v=64
78000 On ch=1 n=60 v=80
78000 On ch=1 n=57 v=80
78000 On ch=1 n=52 v=80
78108 Off ch=1 n=60 v=64
78108 Off ch=1 n=57 v=64
78108 Off ch=1 n=52 v=64
78120 On ch=1 n=60 v=80
78120 On ch=1 n=57 v=80
78120 On ch=1 n=52 v=80
78228 Off ch=1 n=60 v=64
78228 Off ch=1 n=57 v=64
78228 Off ch=1 n=52 v=64
78240 On ch=1 n=60 v=80
78240 On ch=1 n=57 v=80
78240 On ch=1 n=52 v=80
78456 Off ch=1 n=60 v=64
78456 Off ch=1 n=57 v=64
78456 Off ch=1 n=52 v=64
78480 On ch=1 n=39 v=80
78480 On ch=1 n=27 v=80
78696 Off ch=1 n=39 v=64
78696 Off ch=1 n=27 v=64
78720 On ch=1 n=28 v=80
78720 On ch=1 n=40 v=80
78936 Off ch=1 n=28 v=64
78936 Off ch=1 n=40 v=64
78960 On ch=1 n=47 v=80
78960 On ch=1 n=52 v=80
78960 On ch=1 n=55 v=80
79176 Off ch=1 n=47 v=64
79176 Off ch=1 n=52 v=64
79176 Off ch=1 n=55 v=64
79200 On ch=1 n=48 v=80
79200 On ch=1 n=54 v=80
79200 On ch=1 n=57 v=80
79416 Off ch=1 n=48 v=64
79416 Off ch=1 n=54 v=64
79416 Off ch=1 n=57 v=64
79440 On ch=1 n=23 v=80
79440 On ch=1 n=35 v=80
79656 Off ch=1 n=23 v=64
79656 Off ch=1 n=35 v=64
79680 On ch=1 n=28 v=80
79680 On ch=1 n=40 v=80
79896 Off ch=1 n=28 v=64
79896 Off ch=1 n=40 v=64
79920 On ch=1 n=47 v=80
79920 On ch=1 n=52 v=80
79920 On ch=1 n=55 v=80
80136 Off ch=1 n=47 v=64
80136 Off ch=1 n=52 v=64
80136 Off ch=1 n=55 v=64
80160 On ch=1 n=48 v=80
80160 On ch=1 n=54 v=80
80160 On ch=1 n=57 v=80
80376 Off ch=1 n=48 v=64
80376 Off ch=1 n=54 v=64
80376 Off ch=1 n=57 v=64
80400 On ch=1 n=23 v=80
80400 On ch=1 n=35 v=80
80616 Off ch=1 n=23 v=64
80616 Off ch=1 n=35 v=64
80640 On ch=1 n=28 v=80
80640 On ch=1 n=40 v=80
80856 Off ch=1 n=28 v=64
80856 Off ch=1 n=40 v=64
80880 On ch=1 n=47 v=80
80880 On ch=1 n=52 v=80
80880 On ch=1 n=55 v=80
81096 Off ch=1 n=47 v=64
81096 Off ch=1 n=52 v=64
81096 Off ch=1 n=55 v=64
81120 On ch=1 n=48 v=80
81120 On ch=1 n=54 v=80
81120 On ch=1 n=57 v=80
81336 Off ch=1 n=48 v=64
81336 Off ch=1 n=54 v=64
81336 Off ch=1 n=57 v=64
81360 On ch=1 n=23 v=80
81360 On ch=1 n=35 v=80
81576 Off ch=1 n=23 v=64
81576 Off ch=1 n=35 v=64
81600 On ch=1 n=28 v=80
81600 On ch=1 n=40 v=80
81816 Off ch=1 n=28 v=64
81816 Off ch=1 n=40 v=64
81840 On ch=1 n=47 v=80
81840 On ch=1 n=52 v=80
81840 On ch=1 n=55 v=80
82056 Off ch=1 n=47 v=64
82056 Off ch=1 n=52 v=64
82056 Off ch=1 n=55 v=64
82080 On ch=1 n=48 v=80
82080 On ch=1 n=54 v=80
82080 On ch=1 n=57 v=80
82296 Off ch=1 n=48 v=64
82296 Off ch=1 n=54 v=64
82296 Off ch=1 n=57 v=64
82320 On ch=1 n=23 v=80
82320 On ch=1 n=35 v=80
82536 Off ch=1 n=23 v=64
82536 Off ch=1 n=35 v=64
82560 On ch=1 n=28 v=80
82560 On ch=1 n=40 v=80
82992 Off ch=1 n=28 v=64
82992 Off ch=1 n=40 v=64
84480 Meta TrkEnd
TrkEnd
